G04 EasyPC Gerber Version 22.0 Build 4696 *
G04 #@! TF.Part,Single*
G04 #@! TF.FileFunction,Copper,L1,Top *
G04 #@! TF.FilePolarity,Positive *
%FSLAX35Y35*%
%MOIN*%
G04 #@! TA.AperFunction,SMDPad*
%ADD20R,0.03937X0.04291*%
%ADD22R,0.05500X0.06000*%
%ADD88R,0.07000X0.13500*%
G04 #@! TA.AperFunction,ComponentPad*
%ADD26R,0.06000X0.06000*%
%ADD24R,0.09449X0.09449*%
G04 #@! TD.AperFunction*
%ADD10C,0.00500*%
%ADD15C,0.00700*%
%ADD13C,0.01000*%
G04 #@! TA.AperFunction,ViaPad*
%ADD14C,0.03200*%
G04 #@! TA.AperFunction,ComponentPad*
%ADD17C,0.06000*%
%ADD21C,0.07874*%
%ADD25C,0.09449*%
%ADD18C,0.11024*%
%ADD27C,0.17000*%
G04 #@! TA.AperFunction,WasherPad*
%ADD16C,0.37500*%
G04 #@! TA.AperFunction,ComponentPad*
%ADD23O,0.11000X0.06000*%
G04 #@! TA.AperFunction,SMDPad*
%ADD71R,0.06299X0.01181*%
%ADD19R,0.05512X0.01378*%
%ADD28R,0.09843X0.03543*%
%ADD70R,0.04291X0.03937*%
%ADD89R,0.13500X0.07000*%
X0Y0D02*
D02*
D10*
X5250Y399000D02*
Y49000D01*
X9000Y45250*
X24000*
G75*
G02X45250Y24000J-21250*
G01*
Y9000*
X49000Y5250*
X218774*
G75*
G02X210200Y14750I976J9500*
G01*
G75*
G02X229300I9550*
G01*
G75*
G02X220726Y5250I-9550*
G01*
X288774*
G75*
G02X280200Y14750I976J9500*
G01*
G75*
G02X299300I9550*
G01*
G75*
G02X290726Y5250I-9550*
G01*
X451500*
X455250Y9000*
Y24000*
G75*
G02X476500Y45250I21250*
G01*
X492750*
X496500Y49000*
Y399000*
X492750Y402750*
X476500*
G75*
G02X455250Y424000J21250*
G01*
Y441500*
X451500Y445250*
X49000*
X45250Y441500*
Y424000*
G75*
G02X24000Y402750I-21250*
G01*
X9000*
X5250Y399000*
X88444Y405250D02*
G75*
G02X101568I6562D01*
G01*
G75*
G02X88444I-6562*
G01*
X91553Y316518D02*
X97947D01*
Y310482*
X96150*
Y306518*
X97947*
Y300482*
X91553*
Y302100*
X85250*
G75*
G02X84259Y302511J1400*
G01*
X79670Y307100*
X63037*
G75*
G02X53463I-4787J1400*
G01*
X43037*
G75*
G02X33263Y308500I-4787J1400*
G01*
G75*
G02X43037Y309900I4987*
G01*
X53463*
G75*
G02X63037I4787J-1400*
G01*
X80250*
G75*
G02X81241Y309489J-1400*
G01*
X85830Y304900*
X91553*
Y306518*
X93350*
Y310482*
X91553*
Y316518*
X91987Y381825D02*
G75*
G02X105111I6562D01*
G01*
G75*
G02X91987I-6562*
G01*
X165053Y235270D02*
X171447D01*
Y229230*
X165053*
Y230850*
X158330*
X153623Y226143*
G75*
G02X153417Y225973I-990J989*
G01*
X165053*
Y227770*
X171447*
Y221730*
X165053*
Y223173*
X153771*
G75*
G02X153977Y223003I-784J-1159*
G01*
X158330Y218650*
X165053*
Y220270*
X171447*
Y214230*
X165053*
Y215850*
X158130*
X162649Y211331*
G75*
G02X165900Y208750I601J-2581*
G01*
G75*
G02X160600I-2650*
G01*
G75*
G02X160669Y209351I2650J1*
G01*
X156550Y213470*
G75*
G02X156650Y212750I-2550J-720*
G01*
G75*
G02X151350I-2650*
G01*
G75*
G02X154720Y215300I2650*
G01*
X152394Y217626*
Y214957*
X144382*
Y218835*
X144581*
Y230700*
X129557*
Y223953*
X129756*
Y220075*
X129557*
Y215156*
X127150*
Y214500*
G75*
G02X126739Y213509I-1400*
G01*
X125315Y212085*
G75*
G02X121195Y210604I-2565J665*
G01*
Y209300*
X123999*
G75*
G02X125096Y208846I1J-1550*
G01*
X127392Y206550*
X130553*
Y207781*
X130354*
Y214219*
X137146*
Y210588*
X137553Y210995*
Y214018*
X143947*
Y208219*
X144146*
Y201781*
X137354*
Y206412*
X136947Y206005*
Y201982*
X130553*
Y203450*
X126751*
G75*
G02X125654Y203904I-1J1550*
G01*
X123358Y206200*
X121195*
Y205482*
X119947*
G75*
G02X120400Y204000I-2197J-1482*
G01*
G75*
G02X115100I-2650*
G01*
G75*
G02X115553Y205482I2650J0*
G01*
X114805*
Y211518*
X120404*
G75*
G02X121943Y215274I2346J1232*
G01*
Y220075*
X121744*
Y222837*
X114168Y215261*
G75*
G02X113770Y214981I-991J989*
G01*
Y213053*
X112150*
Y211518*
X114195*
Y205482*
X107805*
Y211518*
X109350*
Y213053*
X107730*
Y214850*
G75*
G02X106759Y215261I20J1400*
G01*
X106170Y215850*
X104947*
Y214230*
X98553*
Y220270*
X104947*
Y218650*
X106750*
G75*
G02X107730Y218250J-1400*
G01*
Y219447*
X113770*
Y218822*
X120509Y225562*
G75*
G02X120715Y225732I990J-989*
G01*
X119712*
X116241Y222261*
G75*
G02X115250Y221850I-991J989*
G01*
X113770*
Y220053*
X107730*
Y225850*
X104947*
Y224230*
X98553*
Y230270*
X100817*
G75*
G02X99552Y234230I933J2480*
G01*
X98553*
Y240270*
X104947*
Y234230*
X103948*
G75*
G02X102683Y230270I-2198J-1480*
G01*
X104947*
Y228650*
X107730*
Y234447*
X113770*
Y228053*
X111650*
Y226447*
X113770*
Y224650*
X114670*
X116373Y226353*
G75*
G02X113850Y229000I127J2647*
G01*
G75*
G02X118750Y230400I2650*
G01*
X119025*
G75*
G02X118700Y234900I1225J2350*
G01*
Y236700*
X113770*
Y235053*
X107730*
Y241447*
X113770*
Y239800*
X116200*
Y241850*
G75*
G02X115553Y245482I1550J2150*
G01*
X114805*
Y251518*
X121195*
Y245482*
X119947*
G75*
G02X119300Y241850I-2197J-1482*
G01*
Y239800*
X120250*
G75*
G02X121800Y238250J-1550*
G01*
Y234900*
G75*
G02X122592Y233990I-1550J-2149*
G01*
X129557*
Y233800*
X132450*
Y240982*
X130553*
Y246781*
X130354*
Y253219*
X137146*
Y249588*
X137553Y249995*
Y253018*
X143947*
Y247219*
X144146*
Y240781*
X138462*
G75*
G02X135550Y236526I-1962J-1781*
G01*
Y233800*
X144581*
Y233990*
X152195*
Y228675*
X156759Y233239*
G75*
G02X157750Y233650I991J-989*
G01*
X165053*
Y235270*
X203500Y186650D02*
G75*
G02X208400Y185250I2250J-1400D01*
G01*
G75*
G02X203500Y183850I-2650*
G01*
X165500*
G75*
G02X161403Y183350I-2250J1400*
G01*
X122049*
Y180199*
X106451*
Y189301*
X122049*
Y186150*
X160757*
G75*
G02X165500Y186650I2493J-900*
G01*
X203500*
X174951Y162801D02*
X182549D01*
Y154699*
X174951*
Y156200*
X173650*
G75*
G02X168850Y157750I-2150J1550*
G01*
G75*
G02X173650Y159300I2650*
G01*
X174951*
Y162801*
X185230Y169947D02*
X191270D01*
Y163553*
X185230*
Y165350*
X182549*
Y163699*
X174951*
Y171801*
X182549*
Y168150*
X185230*
Y169947*
X201000Y161150D02*
G75*
G02X205900Y159750I2250J-1400D01*
G01*
G75*
G02X201000Y158350I-2650*
G01*
X191270*
Y156553*
X185230*
Y162947*
X191270*
Y161150*
X201000*
X210950Y151150D02*
G75*
G02X218800Y149750I3800J-1400D01*
G01*
G75*
G02X210950Y148350I-4050*
G01*
X128000*
G75*
G02X123100Y149750I-2250J1400*
G01*
G75*
G02X128000Y151150I2650*
G01*
X210950*
Y131150D02*
G75*
G02X218800Y129750I3800J-1400D01*
G01*
G75*
G02X210950Y128350I-4050*
G01*
X159647*
G75*
G02X160000Y127900I-1897J-1850*
G01*
X198500*
G75*
G02X199491Y127489J-1400*
G01*
X205830Y121150*
X210950*
G75*
G02X218800Y119750I3800J-1400*
G01*
G75*
G02X210950Y118350I-4050*
G01*
X205250*
G75*
G02X204259Y118761J1400*
G01*
X197920Y125100*
X160000*
G75*
G02X158975Y124150I-2250J1400*
G01*
X192250*
G75*
G02X193241Y123739J-1400*
G01*
X205830Y111150*
X210950*
G75*
G02X218800Y109750I3800J-1400*
G01*
G75*
G02X210950Y108350I-4050*
G01*
X205250*
G75*
G02X204259Y108761J1400*
G01*
X191670Y121350*
X125000*
G75*
G02X120100Y122750I-2250J1400*
G01*
G75*
G02X125000Y124150I2650*
G01*
X156525*
G75*
G02X155853Y128350I1225J2350*
G01*
X135000*
G75*
G02X130100Y129750I-2250J1400*
G01*
G75*
G02X135000Y131150I2650*
G01*
X210950*
X210700Y69750D02*
G75*
G02X218800I4050D01*
G01*
G75*
G02X210700I-4050*
G01*
Y79750D02*
G75*
G02X218800I4050D01*
G01*
G75*
G02X210700I-4050*
G01*
Y89750D02*
G75*
G02X218800I4050D01*
G01*
G75*
G02X210700I-4050*
G01*
Y99750D02*
G75*
G02X218800I4050D01*
G01*
G75*
G02X210700I-4050*
G01*
X142750Y36301D02*
G75*
G02Y28199J-4051D01*
G01*
X137750*
G75*
G02Y36301J4051*
G01*
X142750*
X273000Y43650D02*
G75*
G02X277900Y42250I2250J-1400D01*
G01*
G75*
G02X273000Y40850I-2650*
G01*
X159770*
Y39053*
X153730*
Y40850*
X146552*
G75*
G02X142750Y38199I-3802J1400*
G01*
X137750*
G75*
G02Y46301J4051*
G01*
X142750*
G75*
G02X146552Y43650J-4051*
G01*
X153730*
Y45447*
X159770*
Y43650*
X273000*
X153531Y38646D02*
X159969D01*
Y31854*
X153531*
Y38646*
X142750Y72301D02*
G75*
G02Y64199J-4051D01*
G01*
X137750*
G75*
G02Y72301J4051*
G01*
X142750*
X290950Y101150D02*
G75*
G02X298800Y99750I3800J-1400D01*
G01*
G75*
G02X290950Y98350I-4050*
G01*
X288330*
X286650Y96670*
Y51500*
G75*
G02X286239Y50509I-1400*
G01*
X283741Y48011*
G75*
G02X282750Y47600I-991J989*
G01*
X180250*
G75*
G02X179259Y48011J1400*
G01*
X175511Y51759*
G75*
G02X175100Y52750I989J991*
G01*
Y73420*
X171670Y76850*
X159770*
Y75053*
X153730*
Y76850*
X146552*
G75*
G02X142750Y74199I-3802J1400*
G01*
X137750*
G75*
G02Y82301J4051*
G01*
X142750*
G75*
G02X146552Y79650J-4051*
G01*
X153730*
Y81447*
X159770*
Y79650*
X172250*
G75*
G02X173241Y79239J-1400*
G01*
X177489Y74991*
G75*
G02X177900Y74000I-989J-991*
G01*
Y53330*
X180830Y50400*
X282170*
X283850Y52080*
Y97250*
G75*
G02X284261Y98241I1400*
G01*
X286759Y100739*
G75*
G02X287750Y101150I991J-989*
G01*
X290950*
X290500Y39750D02*
G75*
G02X299000I4250D01*
G01*
G75*
G02X290500I-4250*
G01*
X290700Y29750D02*
G75*
G02X298800I4050D01*
G01*
G75*
G02X290700I-4050*
G01*
Y49750D02*
G75*
G02X298800I4050D01*
G01*
G75*
G02X290700I-4050*
G01*
Y59750D02*
G75*
G02X298800I4050D01*
G01*
G75*
G02X290700I-4050*
G01*
Y69750D02*
G75*
G02X298800I4050D01*
G01*
G75*
G02X290700I-4050*
G01*
Y79750D02*
G75*
G02X298800I4050D01*
G01*
G75*
G02X290700I-4050*
G01*
Y89750D02*
G75*
G02X298800I4050D01*
G01*
G75*
G02X290700I-4050*
G01*
X153531Y74646D02*
X159969D01*
Y67854*
X153531*
Y74646*
X142750Y106301D02*
G75*
G02Y98199J-4051D01*
G01*
X137750*
G75*
G02Y106301J4051*
G01*
X142750*
X189250Y113650D02*
G75*
G02X194150Y112250I2250J-1400D01*
G01*
G75*
G02X189250Y110850I-2650*
G01*
X159770*
Y109053*
X153730*
Y110850*
X146552*
G75*
G02X142750Y108199I-3802J1400*
G01*
X137750*
G75*
G02Y116301J4051*
G01*
X142750*
G75*
G02X146552Y113650J-4051*
G01*
X153730*
Y115447*
X159770*
Y113650*
X189250*
X165100Y99750D02*
G75*
G02X170400I2650D01*
G01*
G75*
G02X165100I-2650*
G01*
X277600Y90250D02*
G75*
G02X282900I2650D01*
G01*
G75*
G02X281650Y88000I-2650*
G01*
Y56500*
G75*
G02X281239Y55509I-1400*
G01*
X279991Y54261*
G75*
G02X279000Y53850I-991J989*
G01*
X193750*
G75*
G02X188850Y55250I-2250J1400*
G01*
G75*
G02X193750Y56650I2650*
G01*
X278420*
X278850Y57080*
Y88000*
G75*
G02X277600Y90250I1400J2250*
G01*
X153531Y108646D02*
X159969D01*
Y101854*
X153531*
Y108646*
X210950Y141150D02*
G75*
G02X218800Y139750I3800J-1400D01*
G01*
G75*
G02X210950Y138350I-4050*
G01*
X165000*
G75*
G02X160100Y139750I-2250J1400*
G01*
G75*
G02X165000Y141150I2650*
G01*
X210950*
X122049Y196806D02*
G75*
G02X125400Y194250I701J-2556D01*
G01*
G75*
G02X122049Y191694I-2650*
G01*
Y189699*
X106451*
Y198801*
X122049*
Y196806*
X187649Y243831D02*
G75*
G02X190900Y241250I601J-2581D01*
G01*
G75*
G02X186891Y238975I-2650*
G01*
G75*
G02X186900Y238750I-2639J-224*
G01*
G75*
G02X181600I-2650*
G01*
G75*
G02X181669Y239351I2650J1*
G01*
X177170Y243850*
X155500*
G75*
G02X150600Y245250I-2250J1400*
G01*
G75*
G02X155500Y246650I2650*
G01*
X164370*
X159670Y251350*
X158750*
G75*
G02X153919Y253351I-2250J1401*
G01*
X152394Y254876*
Y253707*
X144382*
Y257585*
X144581*
Y269450*
X129557*
Y262703*
X129756*
Y258825*
X129557*
Y257046*
X130157*
G75*
G02X135400Y256500I2593J-546*
G01*
G75*
G02X131357Y254246I-2650*
G01*
X129557*
Y253907*
X121943*
Y258825*
X121744*
Y261923*
X121403*
X116650Y257170*
Y256000*
G75*
G02X116239Y255009I-1400*
G01*
X114991Y253761*
G75*
G02X114000Y253350I-991J989*
G01*
X113770*
Y251805*
X112414*
Y251518*
X114195*
Y245482*
X107805*
Y251518*
X109586*
Y251805*
X107730*
Y253600*
X106500*
G75*
G02X105509Y254011J1400*
G01*
X104947Y254573*
Y252982*
X98553*
Y259018*
X104947*
Y257400*
X105500*
G75*
G02X106491Y256989J-1400*
G01*
X107080Y256400*
X107730*
Y258195*
X113770*
Y256500*
X113850Y256580*
Y257750*
G75*
G02X114261Y258741I1400*
G01*
X119832Y264312*
G75*
G02X120038Y264482I990J-989*
G01*
X119712*
X116241Y261011*
G75*
G02X115250Y260600I-991J989*
G01*
X113770*
Y258805*
X107730*
Y260600*
G75*
G02X106759Y261011I20J1400*
G01*
X104788Y262982*
X98553*
Y269018*
X100822*
G75*
G02X99553Y272982I928J2482*
G01*
X98553*
Y279018*
X104947*
Y272982*
X103947*
G75*
G02X102678Y269018I-2197J-1482*
G01*
X104947*
Y266783*
X107730Y264000*
Y265195*
X109350*
Y266805*
X107730*
Y273195*
X113770*
Y266805*
X112150*
Y265195*
X113770*
Y263400*
X114670*
X118141Y266871*
G75*
G02X119132Y267282I991J-989*
G01*
X120715*
G75*
G02X120100Y268420I785J1159*
G01*
X119601Y268919*
G75*
G02X116350Y271500I-601J2581*
G01*
G75*
G02X121650I2650*
G01*
G75*
G02X121581Y270899I-2650J-1*
G01*
X121943Y270537*
Y272738*
X129557*
Y272550*
X132450*
Y276850*
G75*
G02X131803Y280482I1550J2150*
G01*
X130553*
Y281950*
X130251*
G75*
G02X129154Y282404I-1J1550*
G01*
X127108Y284450*
X121195*
Y282982*
X119550*
Y280250*
G75*
G02X119096Y279154I-1550*
G01*
X115846Y275904*
G75*
G02X114749Y275450I-1096J1096*
G01*
X113770*
Y273805*
X107730*
Y280195*
X113770*
Y278550*
X114108*
X116450Y280892*
Y282982*
X114805*
Y289018*
X121195*
Y287550*
X127749*
G75*
G02X128846Y287096I1J-1550*
G01*
X130553Y285389*
Y286518*
X134576*
X134589Y286531*
X130604*
Y292124*
X130241Y291761*
G75*
G02X129250Y291350I-991J989*
G01*
X128000*
G75*
G02X123366Y293907I-2250J1400*
G01*
X121943*
Y298825*
X121744*
Y301923*
X118903*
X117900Y300920*
Y295000*
G75*
G02X117489Y294009I-1400*
G01*
X114991Y291511*
G75*
G02X114000Y291100I-991J989*
G01*
X113770*
Y289305*
X112400*
Y289018*
X114195*
Y282982*
X107805*
Y289018*
X109600*
Y289305*
X107730*
Y292100*
X104947*
Y290482*
X98553*
Y296518*
X104947*
Y294900*
X107730*
Y295695*
X113770*
Y294250*
X115100Y295580*
Y301500*
G75*
G02X115511Y302491I1400*
G01*
X117332Y304312*
G75*
G02X117663Y304558I991J-988*
G01*
G75*
G02X117127Y304893I454J1324*
G01*
X115920Y306100*
X113770*
Y304305*
X112295*
Y303682*
G75*
G02X112307Y303488I-1544J-194*
G01*
Y302695*
X113770*
Y296305*
X107730*
Y302100*
X104947*
Y300482*
X98553*
Y306518*
X100822*
G75*
G02X99553Y310482I928J2482*
G01*
X98553*
Y316518*
X104947*
Y310482*
X103947*
G75*
G02X102678Y306518I-2197J-1482*
G01*
X104947*
Y304900*
X107730*
Y310695*
X113770*
Y308900*
X116500*
G75*
G02X117491Y308489J-1400*
G01*
X117700Y308280*
G75*
G02X119928Y311630I2550J720*
G01*
X118608Y312950*
X113770*
Y311305*
X107730*
Y317695*
X107944*
G75*
G02X107600Y319000I2306J1305*
G01*
G75*
G02X112900I2650*
G01*
G75*
G02X112556Y317695I-2650*
G01*
X113770*
Y316050*
X119249*
G75*
G02X120346Y315596I1J-1550*
G01*
X123204Y312738*
X129557*
Y312550*
X144581*
Y312738*
X152195*
Y307282*
X152302*
X156759Y311739*
G75*
G02X157750Y312150I991J-989*
G01*
X166053*
Y313770*
X172447*
Y307730*
X166053*
Y309350*
X158330*
X153873Y304893*
G75*
G02X153860Y304880I-978J965*
G01*
X166053*
Y306270*
X172447*
Y300230*
X166053*
Y301765*
X153715*
G75*
G02X153727Y301753I-965J-978*
G01*
X158330Y297150*
X166053*
Y298770*
X172447*
Y292730*
X166053*
Y294350*
X159863*
G75*
G02X160400Y292750I-2113J-1600*
G01*
G75*
G02X155100I-2650*
G01*
G75*
G02X155169Y293351I2650J1*
G01*
X152394Y296126*
Y293707*
X144382*
Y297585*
X144581*
Y309450*
X129557*
Y302703*
X129756*
Y298825*
X129557*
Y295037*
X131169Y296649*
G75*
G02X131100Y297250I2581J600*
G01*
G75*
G02X136400I2650*
G01*
G75*
G02X133149Y294669I-2650*
G01*
X131448Y292969*
X137396*
Y289338*
X137805Y289747*
Y292770*
X144195*
Y286730*
X139172*
X139161Y286719*
X144146*
Y280281*
X137354*
Y284912*
X136947Y284505*
Y280482*
X136197*
G75*
G02X135550Y276850I-2197J-1482*
G01*
Y272550*
X144581*
Y272738*
X152195*
Y267925*
X155509Y271239*
G75*
G02X156500Y271650I991J-989*
G01*
X166053*
Y273270*
X172447*
Y267230*
X166053*
Y268850*
X157080*
X153123Y264893*
G75*
G02X153110Y264880I-978J965*
G01*
X165553*
Y266270*
X171947*
Y260230*
X165553*
Y261765*
X152965*
G75*
G02X152977Y261753I-965J-978*
G01*
X157080Y257650*
X165553*
Y259270*
X171947*
Y253230*
X165553*
Y254850*
X158116*
G75*
G02X158750Y254150I-1616J-2100*
G01*
X160250*
G75*
G02X161241Y253739J-1400*
G01*
X166830Y248150*
X182750*
G75*
G02X183741Y247739J-1400*
G01*
X187649Y243831*
X184000Y276650D02*
G75*
G02X188900Y275250I2250J-1400D01*
G01*
G75*
G02X184000Y273850I-2650*
G01*
X165750*
G75*
G02X164759Y274261J1400*
G01*
X160851Y278169*
G75*
G02X157600Y280750I-601J2581*
G01*
G75*
G02X162900I2650*
G01*
G75*
G02X162831Y280149I-2650J-1*
G01*
X166330Y276650*
X184000*
X179250Y252900D02*
G75*
G02X184150Y251500I2250J-1400D01*
G01*
G75*
G02X179250Y250100I-2650*
G01*
X177750*
G75*
G02X176759Y250511J1400*
G01*
X174761Y252509*
G75*
G02X174376Y253230I989J991*
G01*
X172553*
Y259270*
X178947*
Y253230*
X178000*
X178330Y252900*
X179250*
X299650Y239549D02*
X302801D01*
Y223951*
X293699*
Y239549*
X296850*
Y240670*
X295670Y241850*
X278830*
X267491Y230511*
G75*
G02X266500Y230100I-991J989*
G01*
X262500*
G75*
G02X257681Y230850I-2250J1400*
G01*
X178447*
Y229230*
X172053*
Y235270*
X178447*
Y233650*
X193850*
Y262025*
G75*
G02X189250Y261850I-2350J1225*
G01*
X178947*
Y260230*
X172553*
Y266270*
X178947*
Y264650*
X189250*
G75*
G02X193850Y264475I2250J-1400*
G01*
Y268850*
X179447*
Y267230*
X173053*
Y273270*
X179447*
Y271650*
X193850*
Y302025*
G75*
G02X189250Y301850I-2350J1225*
G01*
X179447*
Y300230*
X173053*
Y306270*
X179447*
Y304650*
X189250*
G75*
G02X193850Y304475I2250J-1400*
G01*
Y308420*
X192920Y309350*
X179447*
Y307730*
X173053*
Y313770*
X179447*
Y312150*
X193500*
G75*
G02X194491Y311739J-1400*
G01*
X196239Y309991*
G75*
G02X196650Y309000I-989J-991*
G01*
Y257863*
G75*
G02X200500Y257150I1600J-2113*
G01*
X212451*
Y260301*
X228049*
Y251199*
X212451*
Y254350*
X200500*
G75*
G02X196650Y253637I-2250J1400*
G01*
Y233650*
X258701*
G75*
G02X262500Y232900I1549J-2150*
G01*
X265920*
X277259Y244239*
G75*
G02X278250Y244650I991J-989*
G01*
X296250*
G75*
G02X297241Y244239J-1400*
G01*
X299239Y242241*
G75*
G02X299650Y241250I-989J-991*
G01*
Y239549*
X212451Y250801D02*
X228049D01*
Y241699*
X212451*
Y244850*
X203500*
G75*
G02X198600Y246250I-2250J1400*
G01*
G75*
G02X203500Y247650I2650*
G01*
X212451*
Y250801*
X283699Y239549D02*
X292801D01*
Y223951*
X289650*
Y220750*
G75*
G02X289239Y219759I-1400*
G01*
X285741Y216261*
G75*
G02X284750Y215850I-991J989*
G01*
X267500*
G75*
G02X263000I-2250J1400*
G01*
X195000*
G75*
G02X190100Y217250I-2250J1400*
G01*
G75*
G02X195000Y218650I2650*
G01*
X263000*
G75*
G02X267500I2250J-1400*
G01*
X284170*
X286850Y221330*
Y223951*
X283699*
Y239549*
X290950Y151150D02*
G75*
G02X298800Y149750I3800J-1400D01*
G01*
G75*
G02X290950Y148350I-4050*
G01*
X276250*
G75*
G02X271350Y149750I-2250J1400*
G01*
G75*
G02X276250Y151150I2650*
G01*
X290950*
X303699Y239549D02*
X312801D01*
Y223951*
X309650*
Y219750*
G75*
G02X309239Y218759I-1400*
G01*
X302241Y211761*
G75*
G02X301250Y211350I-991J989*
G01*
X276250*
G75*
G02X271350Y212750I-2250J1400*
G01*
G75*
G02X276250Y214150I2650*
G01*
X300670*
X306850Y220330*
Y223951*
X303699*
Y239549*
X282950Y194750D02*
G75*
G02X302050I9550D01*
G01*
G75*
G02X282950I-9550*
G01*
X290700Y159750D02*
G75*
G02X298800I4050D01*
G01*
G75*
G02X290700I-4050*
G01*
Y169750D02*
G75*
G02X298800I4050D01*
G01*
G75*
G02X290700I-4050*
G01*
X464687Y144852D02*
G75*
G02X463750Y134563I-937J-5102D01*
G01*
G75*
G02X462813Y144852J5187*
G01*
G75*
G02X458963Y148350I937J4898*
G01*
X448537*
G75*
G02X444687Y144852I-4787J1400*
G01*
G75*
G02X443750Y134563I-937J-5102*
G01*
G75*
G02X442813Y144852J5187*
G01*
G75*
G02X438963Y148350I937J4898*
G01*
X421447*
Y146730*
X416250*
X417210Y145770*
X421447*
Y139730*
X415053*
Y143967*
X414447Y144573*
Y139730*
X408053*
Y143200*
X393492*
G75*
G02X388647Y140853I-3742J1550*
G01*
G75*
G02X380950Y138350I-3897J-1103*
G01*
X371250*
G75*
G02X370259Y138761J1400*
G01*
X369670Y139350*
X368049*
Y136699*
X360451*
Y139350*
X355947*
Y138230*
X354150*
Y136500*
G75*
G02X353739Y135509I-1400*
G01*
X352491Y134261*
G75*
G02X351500Y133850I-991J989*
G01*
X341500*
G75*
G02X340509Y134261J1400*
G01*
X333011Y141759*
G75*
G02X332600Y142750I989J991*
G01*
Y172170*
X326420Y178350*
X298550*
G75*
G02X290700Y179750I-3800J1400*
G01*
G75*
G02X298550Y181150I4050*
G01*
X327000*
G75*
G02X327991Y180739J-1400*
G01*
X334989Y173741*
G75*
G02X335400Y172750I-989J-991*
G01*
Y143330*
X342080Y136650*
X350920*
X351350Y137080*
Y138230*
X349553*
Y144270*
X355947*
Y142150*
X360451*
Y144801*
X368049*
Y142150*
X370250*
G75*
G02X371241Y141739J-1400*
G01*
X371830Y141150*
X380950*
G75*
G02X385853Y143647I3800J-1400*
G01*
G75*
G02Y145853I3897J1103*
G01*
G75*
G02X380700Y149750I-1103J3897*
G01*
G75*
G02X388550Y151150I4050*
G01*
X408053*
Y152770*
X414447*
Y148533*
X415053Y147927*
Y152770*
X421447*
Y151150*
X438963*
G75*
G02X448537I4787J-1400*
G01*
X458963*
G75*
G02X468737Y149750I4787J-1400*
G01*
G75*
G02X464687Y144852I-4987*
G01*
Y91352D02*
G75*
G02X463750Y81063I-937J-5102D01*
G01*
G75*
G02X462813Y91352J5187*
G01*
G75*
G02X458963Y94850I937J4898*
G01*
X448537*
G75*
G02X444687Y91352I-4787J1400*
G01*
G75*
G02X443750Y81063I-937J-5102*
G01*
G75*
G02X442813Y91352J5187*
G01*
G75*
G02X438963Y94850I937J4898*
G01*
X421447*
Y93730*
X416250*
X417210Y92770*
X421447*
Y86730*
X415053*
Y90967*
X414447Y91573*
Y86730*
X408053*
Y88200*
X406501*
G75*
G02X405404Y88654I-1J1550*
G01*
X403858Y90200*
X393492*
G75*
G02X388647Y87853I-3742J1550*
G01*
G75*
G02X380950Y85350I-3897J-1103*
G01*
X368049*
Y82199*
X360451*
Y85850*
X355947*
Y84230*
X351210*
X347491Y80511*
G75*
G02X346500Y80100I-991J989*
G01*
X329000*
G75*
G02X328009Y80511J1400*
G01*
X325511Y83009*
G75*
G02X325100Y84000I989J991*
G01*
Y112920*
X319670Y118350*
X298550*
G75*
G02X290700Y119750I-3800J1400*
G01*
G75*
G02X298550Y121150I4050*
G01*
X320250*
G75*
G02X321241Y120739J-1400*
G01*
X327489Y114491*
G75*
G02X327900Y113500I-989J-991*
G01*
Y84580*
X329580Y82900*
X345920*
X347052Y84031*
X342354*
Y90469*
X349146*
Y86126*
X349553Y86533*
Y90270*
X355947*
Y88650*
X360451*
Y90301*
X368049*
Y88150*
X380950*
G75*
G02X385853Y90647I3800J-1400*
G01*
G75*
G02Y92853I3897J1103*
G01*
G75*
G02X380700Y96750I-1103J3897*
G01*
G75*
G02X388550Y98150I4050*
G01*
X408053*
Y99770*
X414447*
Y95533*
X415053Y94927*
Y99770*
X421447*
Y97650*
X438963*
G75*
G02X448537I4787J-1400*
G01*
X458963*
G75*
G02X468737Y96250I4787J-1400*
G01*
G75*
G02X464687Y91352I-4987*
G01*
X342354Y97469D02*
X349146D01*
Y91031*
X342354*
Y97469*
X360451Y99301D02*
X368049D01*
Y91199*
X360451*
Y93850*
X355947*
Y91230*
X349553*
Y97270*
X355947*
Y96650*
X360451*
Y99301*
X207700Y194750D02*
G75*
G02X226800I9550D01*
G01*
G75*
G02X207700I-9550*
G01*
X238000Y181150D02*
G75*
G02X242900Y179750I2250J-1400D01*
G01*
G75*
G02X238000Y178350I-2650*
G01*
X218801*
Y175699*
X210699*
Y183801*
X218801*
Y181150*
X238000*
X210700Y159750D02*
G75*
G02X218800I4050D01*
G01*
G75*
G02X210700I-4050*
G01*
X243000Y171150D02*
G75*
G02X247900Y169750I2250J-1400D01*
G01*
G75*
G02X243000Y168350I-2650*
G01*
X218550*
G75*
G02X210700Y169750I-3800J1400*
G01*
G75*
G02X218550Y171150I4050*
G01*
X243000*
X290950Y141150D02*
G75*
G02X298800Y139750I3800J-1400D01*
G01*
G75*
G02X290950Y138350I-4050*
G01*
X262097*
G75*
G02X257600Y140250I-1847J1900*
G01*
G75*
G02X262743Y141150I2650*
G01*
X290950*
Y131150D02*
G75*
G02X298800Y129750I3800J-1400D01*
G01*
G75*
G02X290950Y128350I-4050*
G01*
X267500*
G75*
G02X262600Y129750I-2250J1400*
G01*
G75*
G02X267500Y131150I2650*
G01*
X290950*
X290700Y109750D02*
G75*
G02X298800I4050D01*
G01*
G75*
G02X290700I-4050*
G01*
X271750Y226150D02*
G75*
G02X276650Y224750I2250J-1400D01*
G01*
G75*
G02X271750Y223350I-2650*
G01*
X207500*
G75*
G02X202739Y223903I-2250J1400*
G01*
X190117*
G75*
G02X188399Y218919I-1117J-2403*
G01*
X185741Y216261*
G75*
G02X184750Y215850I-991J989*
G01*
X178447*
Y214230*
X172053*
Y220270*
X178447*
Y218650*
X184170*
X186419Y220899*
G75*
G02X187883Y223903I2581J601*
G01*
X178447*
Y221730*
X172053*
Y227770*
X178447*
Y226703*
X203459*
G75*
G02X207500Y226150I1791J-1953*
G01*
X271750*
X91987Y422967D02*
G75*
G02X105111I6562D01*
G01*
G75*
G02X91987I-6562*
G01*
X119854Y363469D02*
X126646D01*
Y357031*
X119854*
Y363469*
X150124Y395373D02*
G75*
G02X158111Y394423I3937J-950D01*
G01*
G75*
G02X155461Y390623I-4050*
G01*
Y367274*
G75*
G02X155511Y363270I-1711J-2024*
G01*
X156947*
Y357230*
X150553*
Y363270*
X151989*
G75*
G02X152661Y367666I1761J1980*
G01*
Y390623*
G75*
G02X150124Y393473I1400J3800*
G01*
G75*
G02X142356Y393111I-3937J950*
G01*
G75*
G02X134270I-4043J1312*
G01*
G75*
G02X131650Y390559I-3831J1312*
G01*
Y367500*
G75*
G02X132011Y363270I-1400J-2250*
G01*
X133447*
Y357230*
X127053*
Y363270*
X128489*
G75*
G02X128850Y367500I1761J1980*
G01*
Y390698*
G75*
G02X126389Y394423I1589J3725*
G01*
G75*
G02X134270Y395735I4050*
G01*
G75*
G02X142356I4043J-1312*
G01*
G75*
G02X150124Y395373I3831J-1312*
G01*
X157354Y363469D02*
X164146D01*
Y357031*
X157354*
Y363469*
X216750Y346650D02*
G75*
G02X221650Y345250I2250J-1400D01*
G01*
G75*
G02X216750Y343850I-2650*
G01*
X156000*
G75*
G02X151100Y345250I-2250J1400*
G01*
G75*
G02X156000Y346650I2650*
G01*
X216750*
X139230Y363447D02*
X145270D01*
Y357053*
X139230*
Y358052*
G75*
G02X135100Y360250I-1480J2198*
G01*
G75*
G02X139230Y362448I2650*
G01*
Y363447*
X139031Y356646D02*
X145469D01*
Y349854*
X139031*
Y356646*
X213000Y341650D02*
G75*
G02X217900Y340250I2250J-1400D01*
G01*
G75*
G02X213000Y338850I-2650*
G01*
X132500*
G75*
G02X127600Y340250I-2250J1400*
G01*
G75*
G02X132500Y341650I2650*
G01*
X213000*
X309699Y330049D02*
X318801D01*
Y314451*
X309699*
Y320850*
X307830*
X304741Y317761*
G75*
G02X303750Y317350I-991J989*
G01*
X292270*
Y315553*
X291397*
G75*
G02X288649Y311419I-2147J-1553*
G01*
X286491Y309261*
G75*
G02X285500Y308850I-991J989*
G01*
X279000*
G75*
G02X278009Y309261J1400*
G01*
X272538Y314732*
X271498*
Y291459*
X263096*
Y312023*
X255678*
G75*
G02X254581Y312477I-1J1550*
G01*
X251654Y315404*
G75*
G02X251200Y316500I1096J1096*
G01*
Y317141*
X249451*
Y291459*
X247608*
G75*
G02X247900Y290250I-2358J-1209*
G01*
G75*
G02X242600I-2650*
G01*
G75*
G02X242892Y291459I2650*
G01*
X241049*
Y304496*
X240226*
X237831Y302101*
G75*
G02X237900Y301500I-2581J-600*
G01*
G75*
G02X232600I-2650*
G01*
G75*
G02X234371Y304000I2650*
G01*
G75*
G02X235851Y309081I879J2500*
G01*
X236214Y309444*
G75*
G02X236420Y309614I990J-989*
G01*
X222844*
X221241Y308011*
G75*
G02X220250Y307600I-991J989*
G01*
X217500*
G75*
G02X212600Y309000I-2250J1400*
G01*
G75*
G02X217500Y310400I2650*
G01*
X219670*
X221273Y312003*
G75*
G02X221479Y312173I990J-989*
G01*
X221250*
G75*
G02X216350Y313573I-2250J1400*
G01*
G75*
G02X221250Y314973I2650*
G01*
X238215*
G75*
G02X238009Y315143I784J1159*
G01*
X235802Y317350*
X232270*
Y315553*
X226230*
Y321947*
X232270*
Y320150*
X236382*
G75*
G02X237373Y319739J-1400*
G01*
X239580Y317532*
X241049*
Y322892*
X249451*
Y322800*
X251200*
Y323100*
G75*
G02X250288Y326230I1550J2149*
G01*
X249553*
Y332270*
X255947*
Y326230*
X255212*
G75*
G02X254300Y323100I-2463J-980*
G01*
Y317142*
X256319Y315123*
X263096*
Y319409*
X262898*
Y323091*
X271697*
Y320248*
X279230*
Y321947*
X285270*
Y315553*
X284397*
G75*
G02X283475Y311650I-2147J-1553*
G01*
X284920*
X286669Y313399*
G75*
G02X287103Y315553I2581J601*
G01*
X286230*
Y321947*
X292270*
Y320150*
X303170*
X306259Y323239*
G75*
G02X307250Y323650I991J-989*
G01*
X309699*
Y330049*
X368000Y307900D02*
G75*
G02X372900Y306500I2250J-1400D01*
G01*
G75*
G02X368000Y305100I-2650*
G01*
X278750*
G75*
G02X277379Y304000I-2250J1400*
G01*
G75*
G02X278750Y302900I-879J-2500*
G01*
X344500*
G75*
G02X349400Y301500I2250J-1400*
G01*
G75*
G02X344500Y300100I-2650*
G01*
X278750*
G75*
G02X273850Y301500I-2250J1400*
G01*
G75*
G02X275621Y304000I2650*
G01*
G75*
G02X273850Y306500I879J2500*
G01*
G75*
G02X278750Y307900I2650*
G01*
X368000*
X334951Y268801D02*
X342549D01*
Y260699*
X341034*
G75*
G02X341650Y259000I-2034J-1699*
G01*
G75*
G02X336350I-2650*
G01*
G75*
G02X336966Y260699I2650*
G01*
X334951*
Y268801*
X342354Y144469D02*
X349146D01*
Y138031*
X342354*
Y144469*
Y151969D02*
X349146D01*
Y145531*
X342354*
Y151969*
X344730Y275947D02*
X350770D01*
Y269553*
X344730*
Y271350*
X342549*
Y269699*
X334951*
Y277801*
X342549*
Y274150*
X344730*
Y275947*
X344531Y269146D02*
X350969D01*
Y262354*
X344531*
Y269146*
X360451Y153801D02*
X368049D01*
Y145699*
X360451*
Y147350*
X355947*
Y145730*
X349553*
Y151770*
X355947*
Y150150*
X360451*
Y153801*
X280000Y271650D02*
G75*
G02X284900Y270250I2250J-1400D01*
G01*
G75*
G02X280000Y268850I-2650*
G01*
X242500*
G75*
G02X237600Y270250I-2250J1400*
G01*
G75*
G02X242500Y271650I2650*
G01*
X280000*
X287000Y266650D02*
G75*
G02X291900Y265250I2250J-1400D01*
G01*
G75*
G02X287000Y263850I-2650*
G01*
X247500*
G75*
G02X242600Y265250I-2250J1400*
G01*
G75*
G02X247500Y266650I2650*
G01*
X287000*
X180899Y292831D02*
G75*
G02X184150Y290250I601J-2581D01*
G01*
G75*
G02X178850I-2650*
G01*
G75*
G02X178919Y290851I2650J1*
G01*
X177040Y292730*
X173053*
Y298770*
X179447*
Y294283*
X180899Y292831*
X212451Y279801D02*
X228049D01*
Y270699*
X212451*
Y273850*
X202500*
G75*
G02X197600Y275250I-2250J1400*
G01*
G75*
G02X202500Y276650I2650*
G01*
X212451*
Y279801*
X221650Y289301D02*
X228049D01*
Y280199*
X212451*
Y289301*
X218850*
Y291170*
X214170Y295850*
X203500*
G75*
G02X198600Y297250I-2250J1400*
G01*
G75*
G02X203500Y298650I2650*
G01*
X214750*
G75*
G02X215741Y298239J-1400*
G01*
X221239Y292741*
G75*
G02X221650Y291750I-989J-991*
G01*
Y289301*
X179389Y381825D02*
G75*
G02X192513I6562D01*
G01*
G75*
G02X179389I-6562*
G01*
Y428675D02*
G75*
G02X192513I6562D01*
G01*
G75*
G02X179389I-6562*
G01*
X182688Y417061D02*
G75*
G02X190788I4050D01*
G01*
G75*
G02X182688I-4050*
G01*
X182932Y405250D02*
G75*
G02X196056I6562D01*
G01*
G75*
G02X182932I-6562*
G01*
X226031Y329146D02*
X232469D01*
Y322354*
X226031*
Y329146*
X256354Y332469D02*
X263146D01*
Y326031*
X256354*
Y332469*
X279031Y329146D02*
X285469D01*
Y322354*
X279031*
Y329146*
X286031D02*
X292469D01*
Y322354*
X286031*
Y329146*
X304944Y404750D02*
G75*
G02X318068I6562D01*
G01*
G75*
G02X304944I-6562*
G01*
X308487Y381325D02*
G75*
G02X321611I6562D01*
G01*
G75*
G02X308487I-6562*
G01*
Y422467D02*
G75*
G02X321611I6562D01*
G01*
G75*
G02X308487I-6562*
G01*
X321699Y330049D02*
X330801D01*
Y314451*
X327726*
G75*
G02X328900Y312250I-1476J-2201*
G01*
G75*
G02X323600I-2650*
G01*
G75*
G02X324774Y314451I2650*
G01*
X321699*
Y330049*
X336354Y363469D02*
X343146D01*
Y357031*
X336354*
Y363469*
X366624Y394873D02*
G75*
G02X374611Y393923I3937J-950D01*
G01*
G75*
G02X371650Y390022I-4050*
G01*
Y367500*
G75*
G02X372011Y363270I-1400J-2250*
G01*
X373447*
Y357230*
X367053*
Y363270*
X368489*
G75*
G02X368850Y367500I1761J1980*
G01*
Y390252*
G75*
G02X366624Y392973I1711J3671*
G01*
G75*
G02X358856Y392611I-3937J950*
G01*
G75*
G02X350770I-4043J1312*
G01*
G75*
G02X348150Y390059I-3831J1312*
G01*
Y367500*
G75*
G02X348511Y363270I-1400J-2250*
G01*
X349947*
Y357230*
X343553*
Y363270*
X344989*
G75*
G02X345350Y367500I1761J1980*
G01*
Y390198*
G75*
G02X342889Y393923I1589J3725*
G01*
G75*
G02X350770Y395235I4050*
G01*
G75*
G02X358856I4043J-1312*
G01*
G75*
G02X366624Y394873I3831J-1312*
G01*
X373854Y363469D02*
X380646D01*
Y357031*
X373854*
Y363469*
X355031Y356646D02*
X361469D01*
Y349854*
X355031*
Y356646*
X359800Y363447D02*
X361270D01*
Y357053*
X355230*
Y363447*
X355808*
G75*
G02X355100Y365250I1942J1803*
G01*
G75*
G02X360400I2650*
G01*
G75*
G02X359800Y363571I-2650*
G01*
Y363447*
X395889Y381325D02*
G75*
G02X409013I6562D01*
G01*
G75*
G02X395889I-6562*
G01*
Y428175D02*
G75*
G02X409013I6562D01*
G01*
G75*
G02X395889I-6562*
G01*
X399188Y416561D02*
G75*
G02X407288I4050D01*
G01*
G75*
G02X399188I-4050*
G01*
X399432Y404750D02*
G75*
G02X412556I6562D01*
G01*
G75*
G02X399432I-6562*
G01*
X94650Y127175D02*
X99222D01*
Y121530*
X87278*
Y127175*
X91850*
Y159670*
X82170Y169350*
X40026*
Y164974*
X28474*
Y176526*
X40026*
Y172150*
X82750*
G75*
G02X83741Y171739J-1400*
G01*
X94239Y161241*
G75*
G02X94650Y160250I-989J-991*
G01*
Y127175*
X112750Y116301D02*
G75*
G02Y108199J-4051D01*
G01*
X107750*
G75*
G02X104054Y110590J4051*
G01*
X99222*
Y109325*
X87278*
Y114970*
X99222*
Y113705*
X103969*
G75*
G02X107750Y116301I3781J-1455*
G01*
X112750*
Y106301D02*
G75*
G02Y98199J-4051D01*
G01*
X107750*
G75*
G02Y106301J4051*
G01*
X112750*
X28476Y110750D02*
G75*
G02X40024I5774D01*
G01*
G75*
G02X28476I-5774*
G01*
X87278Y57175D02*
X99222D01*
Y51530*
X87278*
Y52952*
X65250*
G75*
G02X64259Y53363J1400*
G01*
X59261Y58361*
G75*
G02X58850Y59352I989J991*
G01*
Y124670*
X54170Y129350*
X39852*
G75*
G02X28476Y130750I-5602J1400*
G01*
G75*
G02X39852Y132150I5774*
G01*
X54750*
G75*
G02X55741Y131739J-1400*
G01*
X61239Y126241*
G75*
G02X61650Y125250I-989J-991*
G01*
Y59932*
X65830Y55752*
X87278*
Y57175*
X112750Y46301D02*
G75*
G02Y38199J-4051D01*
G01*
X107750*
G75*
G02X104054Y40590J4051*
G01*
X99222*
Y39325*
X87278*
Y44970*
X99222*
Y43705*
X103969*
G75*
G02X107750Y46301I3781J-1455*
G01*
X112750*
Y36301D02*
G75*
G02Y28199J-4051D01*
G01*
X107750*
G75*
G02Y36301J4051*
G01*
X112750*
X87278Y93175D02*
X99222D01*
Y87530*
X87278*
Y88952*
X80250*
G75*
G02X79259Y89363J1400*
G01*
X74261Y94361*
G75*
G02X73850Y95352I989J991*
G01*
Y144670*
X69170Y149350*
X39852*
G75*
G02X28476Y150750I-5602J1400*
G01*
G75*
G02X39852Y152150I5774*
G01*
X69750*
G75*
G02X70741Y151739J-1400*
G01*
X76239Y146241*
G75*
G02X76650Y145250I-989J-991*
G01*
Y95932*
X80830Y91752*
X87278*
Y93175*
X112750Y82301D02*
G75*
G02Y74199J-4051D01*
G01*
X107750*
G75*
G02X104054Y76590J4051*
G01*
X99222*
Y75325*
X87278*
Y80970*
X99222*
Y79705*
X103969*
G75*
G02X107750Y82301I3781J-1455*
G01*
X112750*
Y72301D02*
G75*
G02Y64199J-4051D01*
G01*
X107750*
G75*
G02Y72301J4051*
G01*
X112750*
X91553Y220270D02*
X97947D01*
Y214230*
X91553*
Y215850*
X77750*
G75*
G02X76759Y216261J1400*
G01*
X72170Y220850*
X63037*
G75*
G02X53463I-4787J1400*
G01*
X43037*
G75*
G02X33263Y222250I-4787J1400*
G01*
G75*
G02X43037Y223650I4987*
G01*
X53463*
G75*
G02X63037I4787J-1400*
G01*
X72750*
G75*
G02X73741Y223239J-1400*
G01*
X78330Y218650*
X91553*
Y220270*
Y240270D02*
X97947D01*
Y234230*
X96150*
Y230270*
X97947*
Y224230*
X91553*
Y225850*
X77750*
G75*
G02X76759Y226261J1400*
G01*
X72170Y230850*
X63037*
G75*
G02X53463I-4787J1400*
G01*
X43037*
G75*
G02X33263Y232250I-4787J1400*
G01*
G75*
G02X43037Y233650I4987*
G01*
X53463*
G75*
G02X63037I4787J-1400*
G01*
X72750*
G75*
G02X73741Y233239J-1400*
G01*
X78330Y228650*
X91553*
Y230270*
X93350*
Y234230*
X91553*
Y240270*
Y259018D02*
X97947D01*
Y252982*
X91553*
Y254600*
X81500*
G75*
G02X80509Y255011J1400*
G01*
X75920Y259600*
X63037*
G75*
G02X53463I-4787J1400*
G01*
X43037*
G75*
G02X33263Y261000I-4787J1400*
G01*
G75*
G02X43037Y262400I4987*
G01*
X53463*
G75*
G02X63037I4787J-1400*
G01*
X76500*
G75*
G02X77491Y261989J-1400*
G01*
X82080Y257400*
X91553*
Y259018*
Y279018D02*
X97947D01*
Y272982*
X96150*
Y269018*
X97947*
Y262982*
X91553*
Y264600*
X84000*
G75*
G02X83009Y265011J1400*
G01*
X78420Y269600*
X63037*
G75*
G02X53463I-4787J1400*
G01*
X43037*
G75*
G02X33263Y271000I-4787J1400*
G01*
G75*
G02X43037Y272400I4987*
G01*
X53463*
G75*
G02X63037I4787J-1400*
G01*
X79000*
G75*
G02X79991Y271989J-1400*
G01*
X84580Y267400*
X91553*
Y269018*
X93350*
Y272982*
X91553*
Y279018*
Y296518D02*
X97947D01*
Y290482*
X91553*
Y292100*
X81500*
G75*
G02X80509Y292511J1400*
G01*
X75920Y297100*
X63037*
G75*
G02X53463I-4787J1400*
G01*
X43037*
G75*
G02X33263Y298500I-4787J1400*
G01*
G75*
G02X43037Y299900I4987*
G01*
X53463*
G75*
G02X63037I4787J-1400*
G01*
X76500*
G75*
G02X77491Y299489J-1400*
G01*
X82080Y294900*
X91553*
Y296518*
X45250Y24000D02*
G36*
Y9000D01*
X48750Y5500*
X217375*
G75*
G02X210200Y14750I2375J9250*
G01*
G75*
G02X229300I9550*
G01*
G75*
G02X222125Y5500I-9550J0*
G01*
X287375*
G75*
G02X280200Y14750I2375J9250*
G01*
G75*
G02X299300I9550*
G01*
G75*
G02X292125Y5500I-9550J0*
G01*
X451750*
X455250Y9000*
Y24000*
G75*
G02X456917Y32250I21251J0*
G01*
X297936*
G75*
G02X298800Y29750I-3186J-2500*
G01*
G75*
G02X290700I-4050*
G01*
G75*
G02X291564Y32250I4050*
G01*
X159969*
Y31854*
X153531*
Y32250*
X146801*
G75*
G02X142750Y28199I-4051*
G01*
X137750*
G75*
G02X133699Y32250J4051*
G01*
X116801*
G75*
G02X112750Y28199I-4051*
G01*
X107750*
G75*
G02X103699Y32250J4051*
G01*
X43583*
G75*
G02X45250Y24000I-19584J-8250*
G01*
G37*
X34886Y42250D02*
G36*
G75*
G02X43583Y32250I-10886J-18250D01*
G01*
X103699*
G75*
G02X107750Y36301I4051*
G01*
X112750*
G75*
G02X116801Y32250J-4051*
G01*
X133699*
G75*
G02X137750Y36301I4051*
G01*
X142750*
G75*
G02X146801Y32250J-4051*
G01*
X153531*
Y38646*
X159969*
Y32250*
X291564*
G75*
G02X297936I3186J-2500*
G01*
X456917*
G75*
G02X465614Y42250I19583J-8250*
G01*
X298187*
G75*
G02X299000Y39750I-3437J-2500*
G01*
G75*
G02X290500I-4250*
G01*
G75*
G02X291313Y42250I4250*
G01*
X277900*
G75*
G02X273000Y40850I-2650*
G01*
X159770*
Y39053*
X153730*
Y40850*
X146552*
G75*
G02X142750Y38199I-3802J1400*
G01*
X137750*
G75*
G02X133699Y42250J4051*
G01*
X116801*
G75*
G02X112750Y38199I-4051*
G01*
X107750*
G75*
G02X104054Y40590I0J4052*
G01*
X99222*
Y39325*
X87278*
Y42250*
X34886*
G37*
X5500Y49750D02*
G36*
Y48750D01*
X9000Y45250*
X24000*
G75*
G02X34886Y42250I0J-21251*
G01*
X87278*
Y44970*
X99222*
Y43705*
X103969*
G75*
G02X107750Y46301I3780J-1454*
G01*
X112750*
G75*
G02X116801Y42250J-4051*
G01*
X133699*
G75*
G02X137750Y46301I4051*
G01*
X142750*
G75*
G02X146552Y43650I0J-4052*
G01*
X153730*
Y45447*
X159770*
Y43650*
X273000*
G75*
G02X277900Y42250I2250J-1400*
G01*
X291313*
G75*
G02X298187I3437J-2500*
G01*
X465614*
G75*
G02X476500Y45250I10886J-18251*
G01*
X492750*
X496250Y48750*
Y49750*
X298800*
G75*
G02X290700I-4050*
G01*
X285480*
X283741Y48011*
G75*
G02X282750Y47600I-990J987*
G01*
X180250*
G75*
G02X179259Y48011I0J1399*
G01*
X177520Y49750*
X5500*
G37*
Y59750D02*
G36*
Y49750D01*
X177520*
X175511Y51759*
G75*
G02X175100Y52749I986J990*
G01*
G75*
G02Y52750I1611J1*
G01*
Y59750*
X61832*
X65830Y55752*
X87278*
Y57175*
X99222*
Y51530*
X87278*
Y52952*
X65250*
G75*
G02X64259Y53363I0J1399*
G01*
X59261Y58361*
G75*
G02X58850Y59351I986J990*
G01*
G75*
G02Y59352I1611J1*
G01*
Y59750*
X5500*
G37*
X177900D02*
G36*
Y53330D01*
X180830Y50400*
X282170*
X283850Y52080*
Y59750*
X281650*
Y56500*
Y56500*
G75*
G02X281239Y55509I-1399*
G01*
X279991Y54261*
G75*
G02X279000Y53850I-990J987*
G01*
X193750*
G75*
G02X188850Y55250I-2250J1400*
G01*
G75*
G02X193750Y56650I2650*
G01*
X278420*
X278850Y57080*
Y59750*
X177900*
G37*
X286239Y50509D02*
G36*
X285480Y49750D01*
X290700*
G75*
G02X298800I4050*
G01*
X496250*
Y59750*
X298800*
G75*
G02X290700I-4050*
G01*
X286650*
Y51500*
Y51500*
G75*
G02X286239Y50509I-1399*
G01*
G37*
X5500Y69750D02*
G36*
Y59750D01*
X58850*
Y69750*
X5500*
G37*
X61650D02*
G36*
Y59932D01*
X61832Y59750*
X175100*
Y69750*
X159969*
Y67854*
X153531*
Y69750*
X146513*
G75*
G02X146801Y68250I-3763J-1500*
G01*
G75*
G02X142750Y64199I-4051*
G01*
X137750*
G75*
G02X133699Y68250J4051*
G01*
G75*
G02X133987Y69750I4051J0*
G01*
X116513*
G75*
G02X116801Y68250I-3763J-1500*
G01*
G75*
G02X112750Y64199I-4051*
G01*
X107750*
G75*
G02X103699Y68250J4051*
G01*
G75*
G02X103987Y69750I4051J0*
G01*
X61650*
G37*
X177900D02*
G36*
Y59750D01*
X278850*
Y69750*
X218800*
G75*
G02X210700I-4050*
G01*
X177900*
G37*
X281650D02*
G36*
Y59750D01*
X283850*
Y69750*
X281650*
G37*
X286650D02*
G36*
Y59750D01*
X290700*
G75*
G02X298800I4050*
G01*
X496250*
Y69750*
X298800*
G75*
G02X290700I-4050*
G01*
X286650*
G37*
X5500Y79750D02*
G36*
Y69750D01*
X58850*
Y79750*
X5500*
G37*
X61650D02*
G36*
Y69750D01*
X103987*
G75*
G02X107750Y72301I3763J-1500*
G01*
X112750*
G75*
G02X116513Y69750J-4051*
G01*
X133987*
G75*
G02X137750Y72301I3763J-1500*
G01*
X142750*
G75*
G02X146513Y69750J-4051*
G01*
X153531*
Y74646*
X159969*
Y69750*
X175100*
Y73420*
X171670Y76850*
X159770*
Y75053*
X153730*
Y76850*
X146552*
G75*
G02X142750Y74199I-3802J1400*
G01*
X137750*
G75*
G02X133699Y78250J4051*
G01*
G75*
G02X133987Y79750I4051J0*
G01*
X116513*
G75*
G02X116801Y78250I-3763J-1500*
G01*
G75*
G02X112750Y74199I-4051*
G01*
X107750*
G75*
G02X104054Y76590I0J4052*
G01*
X99222*
Y75325*
X87278*
Y79750*
X61650*
G37*
X99222D02*
G36*
Y79705D01*
X103969*
G75*
G02X103987Y79750I3785J-1468*
G01*
X99222*
G37*
X146513D02*
G36*
G75*
G02X146552Y79650I-3765J-1495D01*
G01*
X153730*
Y79750*
X146513*
G37*
X159770D02*
G36*
Y79650D01*
X172250*
G75*
G02X173241Y79239I0J-1399*
G01*
X177489Y74991*
G75*
G02X177900Y74001I-986J-990*
G01*
G75*
G02Y74000I-1611J0*
G01*
Y69750*
X210700*
G75*
G02X218800I4050*
G01*
X278850*
Y79750*
X218800*
G75*
G02X210700I-4050*
G01*
X159770*
G37*
X281650D02*
G36*
Y69750D01*
X283850*
Y79750*
X281650*
G37*
X286650D02*
G36*
Y69750D01*
X290700*
G75*
G02X298800I4050*
G01*
X496250*
Y79750*
X298800*
G75*
G02X290700I-4050*
G01*
X286650*
G37*
X5500Y89750D02*
G36*
Y79750D01*
X58850*
Y89750*
X5500*
G37*
X61650D02*
G36*
Y79750D01*
X87278*
Y80970*
X99222*
Y79750*
X103987*
G75*
G02X107750Y82301I3763J-1499*
G01*
X112750*
G75*
G02X116513Y79750J-4051*
G01*
X133987*
G75*
G02X137750Y82301I3763J-1500*
G01*
X142750*
G75*
G02X146513Y79750I0J-4052*
G01*
X153730*
Y81447*
X159770*
Y79750*
X210700*
G75*
G02X218800I4050*
G01*
X278850*
Y88000*
G75*
G02X277648Y89750I1400J2250*
G01*
X218800*
G75*
G02X210700I-4050*
G01*
X99222*
Y87530*
X87278*
Y88952*
X80250*
G75*
G02X79259Y89363I0J1399*
G01*
X78872Y89750*
X61650*
G37*
X281650Y88000D02*
G36*
Y79750D01*
X283850*
Y89750*
X282852*
G75*
G02X281650Y88000I-2602J500*
G01*
G37*
X286650Y89750D02*
G36*
Y79750D01*
X290700*
G75*
G02X298800I4050*
G01*
X496250*
Y89750*
X467578*
G75*
G02X468937Y86250I-3828J-3500*
G01*
G75*
G02X463750Y81063I-5187*
G01*
G75*
G02X458563Y86250J5187*
G01*
G75*
G02X459922Y89750I5187J0*
G01*
X447578*
G75*
G02X448937Y86250I-3828J-3500*
G01*
G75*
G02X443750Y81063I-5187*
G01*
G75*
G02X438563Y86250J5187*
G01*
G75*
G02X439922Y89750I5187J0*
G01*
X421447*
Y86730*
X415053*
Y89750*
X414447*
Y86730*
X408053*
Y88200*
X406501*
G75*
G02X405404Y88654I-1J1550*
G01*
X404308Y89750*
X393272*
G75*
G02X388647Y87853I-3522J2000*
G01*
G75*
G02X388800Y86750I-3897J-1103*
G01*
G75*
G02X380950Y85350I-4050*
G01*
X368049*
Y82199*
X360451*
Y85850*
X355947*
Y84230*
X351210*
X347491Y80511*
G75*
G02X346500Y80100I-990J987*
G01*
X329000*
G75*
G02X328009Y80511I0J1399*
G01*
X325511Y83009*
G75*
G02X325100Y83999I986J990*
G01*
G75*
G02Y84000I1611J1*
G01*
Y89750*
X298800*
G75*
G02X290700I-4050*
G01*
X286650*
G37*
X327900D02*
G36*
Y84580D01*
X329580Y82900*
X345920*
X347052Y84031*
X342354*
Y89750*
X327900*
G37*
X349146D02*
G36*
Y86126D01*
X349553Y86533*
Y89750*
X349146*
G37*
X355947D02*
G36*
Y88650D01*
X360451*
Y89750*
X355947*
G37*
X368049D02*
G36*
Y88150D01*
X380950*
G75*
G02X382029Y89750I3800J-1400*
G01*
X368049*
G37*
X5500Y94250D02*
G36*
Y89750D01*
X58850*
Y94250*
X5500*
G37*
X61650D02*
G36*
Y89750D01*
X78872*
X74372Y94250*
X61650*
G37*
X78332D02*
G36*
X80830Y91752D01*
X87278*
Y93175*
X99222*
Y89750*
X210700*
G75*
G02X218800I4050*
G01*
X277648*
G75*
G02X277600Y90250I2603J500*
G01*
G75*
G02X282900I2650*
G01*
G75*
G02X282852Y89750I-2651J0*
G01*
X283850*
Y94250*
X78332*
G37*
X286650D02*
G36*
Y89750D01*
X290700*
G75*
G02X298800I4050*
G01*
X325100*
Y94250*
X286650*
G37*
X327900D02*
G36*
Y89750D01*
X342354*
Y90469*
X349146*
Y89750*
X349553*
Y90270*
X355947*
Y89750*
X360451*
Y90301*
X368049*
Y89750*
X382029*
G75*
G02X385853Y90647I2721J-3000*
G01*
G75*
G02X385700Y91750I3896J1103*
G01*
G75*
G02X385853Y92853I4050*
G01*
G75*
G02X381564Y94250I-1103J3897*
G01*
X368049*
Y91199*
X360451*
Y93850*
X355947*
Y91230*
X349553*
Y94250*
X349146*
Y91031*
X342354*
Y94250*
X327900*
G37*
X393492Y90200D02*
G36*
G75*
G02X393272Y89750I-3742J1551D01*
G01*
X404308*
X403858Y90200*
X393492*
G37*
X414447Y91573D02*
G36*
Y89750D01*
X415053*
Y90967*
X414447Y91573*
G37*
X416250Y93730D02*
G36*
X417210Y92770D01*
X421447*
Y89750*
X439922*
G75*
G02X442813Y91352I3828J-3500*
G01*
G75*
G02X439181Y94250I937J4898*
G01*
X421447*
Y93730*
X416250*
G37*
X444687Y91352D02*
G36*
G75*
G02X447578Y89750I-937J-5102D01*
G01*
X459922*
G75*
G02X462813Y91352I3828J-3500*
G01*
G75*
G02X459181Y94250I937J4898*
G01*
X448319*
G75*
G02X444687Y91352I-4569J2000*
G01*
G37*
X464687D02*
G36*
G75*
G02X467578Y89750I-937J-5102D01*
G01*
X496250*
Y94250*
X468319*
G75*
G02X464687Y91352I-4569J2000*
G01*
G37*
X5500Y99750D02*
G36*
Y94250D01*
X58850*
Y99750*
X5500*
G37*
X61650D02*
G36*
Y94250D01*
X74372*
X74261Y94361*
G75*
G02X73850Y95351I986J990*
G01*
G75*
G02Y95352I1611J1*
G01*
Y99750*
X61650*
G37*
X76650D02*
G36*
Y95932D01*
X78332Y94250*
X283850*
Y97250*
Y97250*
G75*
G02X284261Y98241I1399*
G01*
X285770Y99750*
X218800*
G75*
G02X210700I-4050*
G01*
X170400*
G75*
G02X165100I-2650*
G01*
X145938*
G75*
G02X142750Y98199I-3188J2500*
G01*
X137750*
G75*
G02X134562Y99750J4051*
G01*
X115938*
G75*
G02X112750Y98199I-3188J2500*
G01*
X107750*
G75*
G02X104562Y99750J4051*
G01*
X76650*
G37*
X286650Y96670D02*
G36*
Y94250D01*
X325100*
Y99750*
X298800*
G75*
G02X290950Y98350I-4050*
G01*
X288330*
X286650Y96670*
G37*
X327900Y99750D02*
G36*
Y94250D01*
X342354*
Y97469*
X349146*
Y94250*
X349553*
Y97270*
X355947*
Y96650*
X360451*
Y99301*
X368049*
Y94250*
X381564*
G75*
G02X380700Y96750I3186J2500*
G01*
G75*
G02X382030Y99750I4050J0*
G01*
X327900*
G37*
X387471D02*
G36*
G75*
G02X388550Y98150I-2721J-3000D01*
G01*
X408053*
Y99750*
X387471*
G37*
X414447D02*
G36*
Y95533D01*
X415053Y94927*
Y99750*
X414447*
G37*
X421447Y94850D02*
G36*
Y94250D01*
X439181*
G75*
G02X438963Y94850I4569J2000*
G01*
X421447*
G37*
Y99750D02*
G36*
Y97650D01*
X438963*
G75*
G02X440197Y99750I4787J-1400*
G01*
X421447*
G37*
X448537Y94850D02*
G36*
G75*
G02X448319Y94250I-4787J1400D01*
G01*
X459181*
G75*
G02X458963Y94850I4569J2000*
G01*
X448537*
G37*
X447303Y99750D02*
G36*
G75*
G02X448537Y97650I-3553J-3500D01*
G01*
X458963*
G75*
G02X460197Y99750I4787J-1400*
G01*
X447303*
G37*
X468737Y96250D02*
G36*
G75*
G02X468319Y94250I-4987D01*
G01*
X496250*
Y99750*
X467302*
G75*
G02X468737Y96250I-3553J-3500*
G01*
G37*
X5500Y105250D02*
G36*
Y99750D01*
X58850*
Y105250*
X36009*
G75*
G02X32491I-1759J5500*
G01*
X5500*
G37*
X61650D02*
G36*
Y99750D01*
X73850*
Y105250*
X61650*
G37*
X76650D02*
G36*
Y99750D01*
X104562*
G75*
G02X103699Y102250I3188J2500*
G01*
G75*
G02X105028Y105250I4051*
G01*
X76650*
G37*
X116801Y102250D02*
G36*
G75*
G02X115938Y99750I-4051D01*
G01*
X134562*
G75*
G02X133699Y102250I3188J2500*
G01*
G75*
G02X135028Y105250I4051*
G01*
X115472*
G75*
G02X116801Y102250I-2722J-3000*
G01*
G37*
X146801D02*
G36*
G75*
G02X145938Y99750I-4051D01*
G01*
X165100*
G75*
G02X170400I2650*
G01*
X210700*
G75*
G02X218800I4050*
G01*
X285770*
X286759Y100739*
G75*
G02X287750Y101150I990J-987*
G01*
X290950*
G75*
G02X298800Y99750I3800J-1400*
G01*
X325100*
Y105250*
X159969*
Y101854*
X153531*
Y105250*
X145472*
G75*
G02X146801Y102250I-2722J-3000*
G01*
G37*
X327900Y105250D02*
G36*
Y99750D01*
X382030*
G75*
G02X387471I2721J-3000*
G01*
X408053*
Y99770*
X414447*
Y99750*
X415053*
Y99770*
X421447*
Y99750*
X440197*
G75*
G02X447303I3553J-3500*
G01*
X460197*
G75*
G02X467302I3553J-3500*
G01*
X496250*
Y105250*
X327900*
G37*
X5500Y112250D02*
G36*
Y105250D01*
X32491*
G75*
G02X28476Y110750I1759J5500*
G01*
G75*
G02X28674Y112250I5774J1*
G01*
X5500*
G37*
X40024Y110750D02*
G36*
G75*
G02X36009Y105250I-5774D01*
G01*
X58850*
Y112250*
X39826*
G75*
G02X40024Y110750I-5576J-1499*
G01*
G37*
X61650Y112250D02*
G36*
Y105250D01*
X73850*
Y112250*
X61650*
G37*
X76650D02*
G36*
Y105250D01*
X105028*
G75*
G02X107750Y106301I2722J-3000*
G01*
X112750*
G75*
G02X115472Y105250J-4051*
G01*
X135028*
G75*
G02X137750Y106301I2722J-3000*
G01*
X142750*
G75*
G02X145472Y105250J-4051*
G01*
X153531*
Y108646*
X159969*
Y105250*
X325100*
Y112250*
X297936*
G75*
G02X298800Y109750I-3186J-2500*
G01*
G75*
G02X290700I-4050*
G01*
G75*
G02X291564Y112250I4050*
G01*
X217936*
G75*
G02X218800Y109750I-3186J-2500*
G01*
G75*
G02X210950Y108350I-4050*
G01*
X205250*
G75*
G02X204259Y108761I0J1399*
G01*
X200770Y112250*
X194150*
G75*
G02X189250Y110850I-2650*
G01*
X159770*
Y109053*
X153730*
Y110850*
X146552*
G75*
G02X142750Y108199I-3802J1400*
G01*
X137750*
G75*
G02X133699Y112250J4051*
G01*
X116801*
G75*
G02X112750Y108199I-4051*
G01*
X107750*
G75*
G02X104054Y110590I0J4052*
G01*
X99222*
Y109325*
X87278*
Y112250*
X76650*
G37*
X204730D02*
G36*
X205830Y111150D01*
X210950*
G75*
G02X211564Y112250I3800J-1400*
G01*
X204730*
G37*
X327900D02*
G36*
Y105250D01*
X496250*
Y112250*
X327900*
G37*
X5500Y119750D02*
G36*
Y112250D01*
X28674*
G75*
G02X39826I5576J-1500*
G01*
X58850*
Y119750*
X5500*
G37*
X61650D02*
G36*
Y112250D01*
X73850*
Y119750*
X61650*
G37*
X76650D02*
G36*
Y112250D01*
X87278*
Y114970*
X99222*
Y113705*
X103969*
G75*
G02X107750Y116301I3780J-1454*
G01*
X112750*
G75*
G02X116801Y112250J-4051*
G01*
X133699*
G75*
G02X137750Y116301I4051*
G01*
X142750*
G75*
G02X146552Y113650I0J-4052*
G01*
X153730*
Y115447*
X159770*
Y113650*
X189250*
G75*
G02X194150Y112250I2250J-1400*
G01*
X200770*
X193270Y119750*
X76650*
G37*
X203270D02*
G36*
X197230D01*
X204730Y112250*
X211564*
G75*
G02X217936I3186J-2500*
G01*
X291564*
G75*
G02X297936I3186J-2500*
G01*
X325100*
Y112920*
X319670Y118350*
X298550*
G75*
G02X290700Y119750I-3800J1400*
G01*
X218800*
G75*
G02X210950Y118350I-4050*
G01*
X205250*
G75*
G02X204259Y118761I0J1399*
G01*
X203270Y119750*
G37*
X322230D02*
G36*
X327489Y114491D01*
G75*
G02X327900Y113501I-986J-990*
G01*
G75*
G02Y113500I-1611J0*
G01*
Y112250*
X496250*
Y119750*
X322230*
G37*
X5500Y129750D02*
G36*
Y119750D01*
X58850*
Y124670*
X54170Y129350*
X39852*
G75*
G02X28563Y129750I-5602J1400*
G01*
X5500*
G37*
X57730D02*
G36*
X61239Y126241D01*
G75*
G02X61650Y125251I-986J-990*
G01*
G75*
G02Y125250I-1611J0*
G01*
Y119750*
X73850*
Y129750*
X57730*
G37*
X76650D02*
G36*
Y119750D01*
X193270*
X191670Y121350*
X125000*
G75*
G02X120100Y122750I-2250J1400*
G01*
G75*
G02X125000Y124150I2650*
G01*
X156525*
G75*
G02X155100Y126500I1225J2350*
G01*
G75*
G02X155853Y128350I2650J0*
G01*
X135000*
G75*
G02X130100Y129750I-2250J1400*
G01*
X94650*
Y127175*
X99222*
Y121530*
X87278*
Y127175*
X91850*
Y129750*
X76650*
G37*
X160000Y125100D02*
G36*
G75*
G02X158975Y124150I-2251J1401D01*
G01*
X192250*
G75*
G02X193241Y123739I0J-1399*
G01*
X197230Y119750*
X203270*
X197920Y125100*
X160000*
G37*
X159647Y128350D02*
G36*
G75*
G02X160000Y127900I-1885J-1841D01*
G01*
X198500*
G75*
G02X199491Y127489I0J-1399*
G01*
X205830Y121150*
X210950*
G75*
G02X218800Y119750I3800J-1400*
G01*
X290700*
G75*
G02X298550Y121150I4050*
G01*
X320250*
G75*
G02X321241Y120739I0J-1399*
G01*
X322230Y119750*
X496250*
Y129750*
X298800*
G75*
G02X290950Y128350I-4050*
G01*
X267500*
G75*
G02X262600Y129750I-2250J1400*
G01*
X218800*
G75*
G02X210950Y128350I-4050*
G01*
X159647*
G37*
X5500Y139750D02*
G36*
Y129750D01*
X28563*
G75*
G02X28476Y130750I5687J1001*
G01*
G75*
G02X39852Y132150I5774*
G01*
X54750*
G75*
G02X55741Y131739I0J-1399*
G01*
X57730Y129750*
X73850*
Y139750*
X5500*
G37*
X76650D02*
G36*
Y129750D01*
X91850*
Y139750*
X76650*
G37*
X94650D02*
G36*
Y129750D01*
X130100*
G75*
G02X135000Y131150I2650*
G01*
X210950*
G75*
G02X218800Y129750I3800J-1400*
G01*
X262600*
G75*
G02X267500Y131150I2650*
G01*
X290950*
G75*
G02X298800Y129750I3800J-1400*
G01*
X496250*
Y139750*
X468937*
G75*
G02X463750Y134563I-5187*
G01*
G75*
G02X458563Y139750J5187*
G01*
X448937*
G75*
G02X443750Y134563I-5187*
G01*
G75*
G02X438563Y139750J5187*
G01*
X421447*
Y139730*
X415053*
Y139750*
X414447*
Y139730*
X408053*
Y139750*
X388800*
G75*
G02X380950Y138350I-4050*
G01*
X371250*
G75*
G02X370259Y138761I0J1399*
G01*
X369670Y139350*
X368049*
Y136699*
X360451*
Y139350*
X355947*
Y138230*
X354150*
Y136500*
Y136500*
G75*
G02X353739Y135509I-1399*
G01*
X352491Y134261*
G75*
G02X351500Y133850I-990J987*
G01*
X341500*
G75*
G02X340509Y134261I0J1399*
G01*
X335020Y139750*
X298800*
G75*
G02X290950Y138350I-4050*
G01*
X262097*
G75*
G02X257648Y139750I-1847J1900*
G01*
X218800*
G75*
G02X210950Y138350I-4050*
G01*
X165000*
G75*
G02X160100Y139750I-2250J1400*
G01*
X94650*
G37*
X338980D02*
G36*
X342080Y136650D01*
X350920*
X351350Y137080*
Y138230*
X349553*
Y139750*
X349146*
Y138031*
X342354*
Y139750*
X338980*
G37*
X5500Y149750D02*
G36*
Y139750D01*
X73850*
Y144670*
X69170Y149350*
X39852*
G75*
G02X28563Y149750I-5602J1400*
G01*
X5500*
G37*
X72730D02*
G36*
X76239Y146241D01*
G75*
G02X76650Y145251I-986J-990*
G01*
G75*
G02Y145250I-1611J0*
G01*
Y139750*
X91850*
Y149750*
X72730*
G37*
X94650D02*
G36*
Y139750D01*
X160100*
G75*
G02X165000Y141150I2650*
G01*
X210950*
G75*
G02X218800Y139750I3800J-1400*
G01*
X257648*
G75*
G02X257600Y140250I2602J500*
G01*
G75*
G02X262743Y141150I2650*
G01*
X290950*
G75*
G02X298800Y139750I3800J-1400*
G01*
X335020*
X333011Y141759*
G75*
G02X332600Y142749I986J990*
G01*
G75*
G02Y142750I1611J1*
G01*
Y149750*
X298800*
G75*
G02X290950Y148350I-4050*
G01*
X276250*
G75*
G02X271350Y149750I-2250J1400*
G01*
X218800*
G75*
G02X210950Y148350I-4050*
G01*
X128000*
G75*
G02X123100Y149750I-2250J1400*
G01*
X94650*
G37*
X335400D02*
G36*
Y143330D01*
X338980Y139750*
X342354*
Y144469*
X349146*
Y139750*
X349553*
Y144270*
X355947*
Y142150*
X360451*
Y144801*
X368049*
Y142150*
X370250*
G75*
G02X371241Y141739I0J-1399*
G01*
X371830Y141150*
X380950*
G75*
G02X385853Y143647I3800J-1400*
G01*
G75*
G02X385700Y144750I3896J1103*
G01*
G75*
G02X385853Y145853I4050*
G01*
G75*
G02X380700Y149750I-1103J3897*
G01*
X368049*
Y145699*
X360451*
Y147350*
X355947*
Y145730*
X349553*
Y149750*
X349146*
Y145531*
X342354*
Y149750*
X335400*
G37*
X388647Y140853D02*
G36*
G75*
G02X388800Y139750I-3897J-1103D01*
G01*
X408053*
Y143200*
X393492*
G75*
G02X388647Y140853I-3742J1550*
G01*
G37*
X414447Y144573D02*
G36*
Y139750D01*
X415053*
Y143967*
X414447Y144573*
G37*
Y149750D02*
G36*
Y148533D01*
X415053Y147927*
Y149750*
X414447*
G37*
X416250Y146730D02*
G36*
X417210Y145770D01*
X421447*
Y139750*
X438563*
G75*
G02X442813Y144852I5187*
G01*
G75*
G02X438963Y148350I937J4898*
G01*
X421447*
Y146730*
X416250*
G37*
X448537Y148350D02*
G36*
G75*
G02X444687Y144852I-4787J1400D01*
G01*
G75*
G02X448937Y139750I-937J-5102*
G01*
X458563*
G75*
G02X462813Y144852I5187*
G01*
G75*
G02X458963Y148350I937J4898*
G01*
X448537*
G37*
X468737Y149750D02*
G36*
G75*
G02X464687Y144852I-4987D01*
G01*
G75*
G02X468937Y139750I-937J-5102*
G01*
X496250*
Y149750*
X468737*
G37*
X5500Y158750D02*
G36*
Y149750D01*
X28563*
G75*
G02X28476Y150750I5687J1001*
G01*
G75*
G02X39852Y152150I5774*
G01*
X69750*
G75*
G02X70741Y151739I0J-1399*
G01*
X72730Y149750*
X91850*
Y158750*
X5500*
G37*
X94650D02*
G36*
Y149750D01*
X123100*
G75*
G02X128000Y151150I2650*
G01*
X210950*
G75*
G02X218800Y149750I3800J-1400*
G01*
X271350*
G75*
G02X276250Y151150I2650*
G01*
X290950*
G75*
G02X298800Y149750I3800J-1400*
G01*
X332600*
Y158750*
X298674*
G75*
G02X290826I-3924J1000*
G01*
X218674*
G75*
G02X210826I-3924J1000*
G01*
X205704*
G75*
G02X201000Y158350I-2454J1000*
G01*
X191270*
Y156553*
X185230*
Y158750*
X182549*
Y154699*
X174951*
Y156200*
X173650*
G75*
G02X168850Y157750I-2150J1550*
G01*
G75*
G02X169046Y158750I2650J0*
G01*
X94650*
G37*
X335400D02*
G36*
Y149750D01*
X342354*
Y151969*
X349146*
Y149750*
X349553*
Y151770*
X355947*
Y150150*
X360451*
Y153801*
X368049*
Y149750*
X380700*
G75*
G02X388550Y151150I4050*
G01*
X408053*
Y152770*
X414447*
Y149750*
X415053*
Y152770*
X421447*
Y151150*
X438963*
G75*
G02X448537I4787J-1400*
G01*
X458963*
G75*
G02X468737Y149750I4787J-1400*
G01*
X496250*
Y158750*
X335400*
G37*
X5500Y167677D02*
G36*
Y158750D01*
X91850*
Y159670*
X83843Y167677*
X40026*
Y164974*
X28474*
Y167677*
X5500*
G37*
X87803D02*
G36*
X94239Y161241D01*
G75*
G02X94650Y160251I-986J-990*
G01*
G75*
G02Y160250I-1611J0*
G01*
Y158750*
X169046*
G75*
G02X173650Y159300I2454J-1000*
G01*
X174951*
Y162801*
X182549*
Y158750*
X185230*
Y162947*
X191270*
Y161150*
X201000*
G75*
G02X205900Y159750I2250J-1400*
G01*
G75*
G02X205704Y158750I-2650J0*
G01*
X210826*
G75*
G02X210700Y159750I3925J1001*
G01*
G75*
G02X218800I4050*
G01*
G75*
G02X218674Y158750I-4050J1*
G01*
X290826*
G75*
G02X290700Y159750I3925J1001*
G01*
G75*
G02X298800I4050*
G01*
G75*
G02X298674Y158750I-4050J1*
G01*
X332600*
Y167677*
X298230*
G75*
G02X291270I-3480J2073*
G01*
X246901*
G75*
G02X243599I-1651J2073*
G01*
X218230*
G75*
G02X211271I-3479J2073*
G01*
X191270*
Y163553*
X185230*
Y165350*
X182549*
Y163699*
X174951*
Y167677*
X87803*
G37*
X335400D02*
G36*
Y158750D01*
X496250*
Y167677*
X335400*
G37*
X5500Y179750D02*
G36*
Y167677D01*
X28474*
Y176526*
X40026*
Y172150*
X82750*
G75*
G02X83741Y171739I0J-1399*
G01*
X87803Y167677*
X174951*
Y171801*
X182549*
Y168150*
X185230*
Y169947*
X191270*
Y167677*
X211271*
G75*
G02X210700Y169750I3479J2073*
G01*
G75*
G02X218550Y171150I4050*
G01*
X243000*
G75*
G02X247900Y169750I2250J-1400*
G01*
G75*
G02X246901Y167677I-2650J0*
G01*
X291270*
G75*
G02X290700Y169750I3480J2072*
G01*
G75*
G02X298800I4050*
G01*
G75*
G02X298230Y167677I-4050J0*
G01*
X332600*
Y172170*
X326420Y178350*
X298550*
G75*
G02X290700Y179750I-3800J1400*
G01*
X242900*
G75*
G02X238000Y178350I-2650*
G01*
X218801*
Y175699*
X210699*
Y179750*
X5500*
G37*
X40026Y169350D02*
G36*
Y167677D01*
X83843*
X82170Y169350*
X40026*
G37*
X218550Y168350D02*
G36*
G75*
G02X218230Y167677I-3800J1400D01*
G01*
X243599*
G75*
G02X243000Y168350I1651J2072*
G01*
X218550*
G37*
X328980Y179750D02*
G36*
X334989Y173741D01*
G75*
G02X335400Y172751I-986J-990*
G01*
G75*
G02Y172750I-1611J0*
G01*
Y167677*
X496250*
Y179750*
X328980*
G37*
X5500Y184750D02*
G36*
Y179750D01*
X210699*
Y183801*
X218801*
Y181150*
X238000*
G75*
G02X242900Y179750I2250J-1400*
G01*
X290700*
G75*
G02X298550Y181150I4050*
G01*
X327000*
G75*
G02X327991Y180739I0J-1399*
G01*
X328980Y179750*
X496250*
Y184750*
X208352*
G75*
G02X203500Y183850I-2602J500*
G01*
X165500*
G75*
G02X161403Y183350I-2250J1400*
G01*
X122049*
Y180199*
X106451*
Y184750*
X5500*
G37*
Y194250D02*
G36*
Y184750D01*
X106451*
Y189301*
X122049*
Y186150*
X160757*
G75*
G02X165500Y186650I2493J-900*
G01*
X203500*
G75*
G02X208400Y185250I2250J-1400*
G01*
G75*
G02X208352Y184750I-2650J0*
G01*
X496250*
Y194250*
X302037*
G75*
G02X282963I-9537J500*
G01*
X226787*
G75*
G02X207713I-9537J500*
G01*
X125400*
G75*
G02X122049Y191694I-2650*
G01*
Y189699*
X106451*
Y194250*
X5500*
G37*
Y220733D02*
G36*
Y194250D01*
X106451*
Y198801*
X122049*
Y196806*
G75*
G02X125400Y194250I701J-2556*
G01*
X207713*
G75*
G02X207700Y194750I9537J498*
G01*
G75*
G02X226800I9550*
G01*
G75*
G02X226787Y194250I-9550J-2*
G01*
X282963*
G75*
G02X282950Y194750I9537J498*
G01*
G75*
G02X302050I9550*
G01*
G75*
G02X302037Y194250I-9550J-2*
G01*
X496250*
Y220733*
X309650*
Y219750*
Y219750*
G75*
G02X309239Y218759I-1399*
G01*
X302241Y211761*
G75*
G02X301250Y211350I-990J987*
G01*
X276250*
G75*
G02X271350Y212750I-2250J1400*
G01*
G75*
G02X276250Y214150I2650*
G01*
X300670*
X306850Y220330*
Y220733*
X289650*
G75*
G02X289239Y219759I-1399J17*
G01*
X285741Y216261*
G75*
G02X284750Y215850I-990J987*
G01*
X267500*
G75*
G02X263000I-2250J1400*
G01*
X195000*
G75*
G02X190100Y217250I-2250J1400*
G01*
G75*
G02X195000Y218650I2650*
G01*
X263000*
G75*
G02X267500I2250J-1400*
G01*
X284170*
X286254Y220733*
X191537*
G75*
G02X188399Y218919I-2537J767*
G01*
X185741Y216261*
G75*
G02X184750Y215850I-990J987*
G01*
X178447*
Y214230*
X172053*
Y220270*
X178447*
Y218650*
X184170*
X186254Y220733*
X156246*
X158330Y218650*
X165053*
Y220270*
X171447*
Y214230*
X165053*
Y215850*
X158130*
X162649Y211331*
G75*
G02X165900Y208750I601J-2581*
G01*
G75*
G02X160600I-2650*
G01*
G75*
G02X160669Y209351I2667J-1*
G01*
X156550Y213470*
G75*
G02X156650Y212750I-2567J-722*
G01*
G75*
G02X151350I-2650*
G01*
G75*
G02X154720Y215300I2650*
G01*
X152394Y217626*
Y214957*
X144382*
Y218835*
X144581*
Y220733*
X129756*
Y220075*
X129557*
Y215156*
X127150*
Y214500*
Y214500*
G75*
G02X126739Y213509I-1399*
G01*
X125315Y212085*
G75*
G02X121195Y210604I-2565J665*
G01*
Y209300*
X123999*
G75*
G02X125096Y208846I1J-1550*
G01*
X127392Y206550*
X130553*
Y207781*
X130354*
Y214219*
X137146*
Y210588*
X137553Y210995*
Y214018*
X143947*
Y208219*
X144146*
Y201781*
X137354*
Y206412*
X136947Y206005*
Y201982*
X130553*
Y203450*
X126751*
G75*
G02X125654Y203904I-1J1550*
G01*
X123358Y206200*
X121195*
Y205482*
X119947*
G75*
G02X120400Y204001I-2195J-1481*
G01*
G75*
G02Y204000I-2654J0*
G01*
G75*
G02X115100I-2650*
G01*
G75*
G02X115553Y205482I2651*
G01*
X114805*
Y211518*
X120404*
G75*
G02X120100Y212750I2346J1232*
G01*
G75*
G02X121943Y215274I2649*
G01*
Y220075*
X121744*
Y220733*
X119641*
X114168Y215261*
G75*
G02X113770Y214981I-996J995*
G01*
Y213053*
X112150*
Y211518*
X114195*
Y205482*
X107805*
Y211518*
X109350*
Y213053*
X107730*
Y214850*
G75*
G02X106759Y215261I20J1400*
G01*
X106170Y215850*
X104947*
Y214230*
X98553*
Y220270*
X104947*
Y218650*
X106750*
G75*
G02X107730Y218250I0J-1400*
G01*
Y219447*
X113770*
Y218822*
X115681Y220733*
X113770*
Y220053*
X107730*
Y220733*
X76246*
X78330Y218650*
X91553*
Y220270*
X97947*
Y214230*
X91553*
Y215850*
X77750*
G75*
G02X76759Y216261I0J1399*
G01*
X72287Y220733*
X63001*
G75*
G02X53499I-4751J1517*
G01*
X43001*
G75*
G02X33499I-4751J1517*
G01*
X5500*
G37*
Y227284D02*
G36*
Y220733D01*
X33499*
G75*
G02X33263Y222250I4751J1517*
G01*
G75*
G02X43037Y223650I4987*
G01*
X53463*
G75*
G02X63037I4787J-1400*
G01*
X72750*
G75*
G02X73741Y223239I0J-1399*
G01*
X76246Y220733*
X107730*
Y225850*
X104947*
Y224230*
X98553*
Y227284*
X97947*
Y224230*
X91553*
Y225850*
X77750*
G75*
G02X76759Y226261I0J1399*
G01*
X75736Y227284*
X58710*
G75*
G02X57790I-460J4965*
G01*
X38710*
G75*
G02X37790I-460J4967*
G01*
X5500*
G37*
X43037Y220850D02*
G36*
G75*
G02X43001Y220733I-4787J1408D01*
G01*
X53499*
G75*
G02X53463Y220850I4751J1524*
G01*
X43037*
G37*
X63037D02*
G36*
G75*
G02X63001Y220733I-4787J1408D01*
G01*
X72287*
X72170Y220850*
X63037*
G37*
X111650Y227284D02*
G36*
Y226447D01*
X113770*
Y224650*
X114670*
X116373Y226353*
G75*
G02X114481Y227284I127J2647*
G01*
X111650*
G37*
X113770Y221850D02*
G36*
Y220733D01*
X115681*
X120509Y225562*
G75*
G02X120715Y225732I964J-957*
G01*
X119712*
X116241Y222261*
G75*
G02X115250Y221850I-990J987*
G01*
X113770*
G37*
X119641Y220733D02*
G36*
X121744D01*
Y222837*
X119641Y220733*
G37*
X129557Y227284D02*
G36*
Y223953D01*
X129756*
Y220733*
X144581*
Y227284*
X129557*
G37*
X153623Y226143D02*
G36*
G75*
G02X153417Y225973I-964J957D01*
G01*
X165053*
Y227284*
X154764*
X153623Y226143*
G37*
X153771Y223173D02*
G36*
G75*
G02X153977Y223003I-758J-1128D01*
G01*
X156246Y220733*
X186254*
X186419Y220899*
G75*
G02X186350Y221500I2581J600*
G01*
G75*
G02X187883Y223903I2650*
G01*
X178447*
Y221730*
X172053*
Y227284*
X171447*
Y221730*
X165053*
Y223173*
X153771*
G37*
X178447Y227284D02*
G36*
Y226703D01*
X203459*
G75*
G02X204475Y227284I1791J-1953*
G01*
X178447*
G37*
X191650Y221500D02*
G36*
G75*
G02X191537Y220733I-2650J-1D01*
G01*
X286254*
X286850Y221330*
Y223951*
X283699*
Y227284*
X274774*
G75*
G02X276650Y224750I-774J-2534*
G01*
G75*
G02X271750Y223350I-2650*
G01*
X207500*
G75*
G02X202739Y223903I-2250J1400*
G01*
X190117*
G75*
G02X191650Y221500I-1117J-2403*
G01*
G37*
X206025Y227284D02*
G36*
G75*
G02X207500Y226150I-775J-2534D01*
G01*
X271750*
G75*
G02X273226Y227284I2250J-1400*
G01*
X206025*
G37*
X289650Y223951D02*
G36*
Y220750D01*
Y220750*
G75*
G02Y220733I-1391J-8*
G01*
X306850*
Y223951*
X303699*
Y227284*
X302801*
Y223951*
X293699*
Y227284*
X292801*
Y223951*
X289650*
G37*
X309650D02*
G36*
Y220733D01*
X496250*
Y227284*
X312801*
Y223951*
X309650*
G37*
X5500Y246250D02*
G36*
Y227284D01*
X37790*
G75*
G02X33263Y232250I460J4966*
G01*
G75*
G02X43037Y233650I4987*
G01*
X53463*
G75*
G02X63037I4787J-1400*
G01*
X72750*
G75*
G02X73741Y233239I0J-1399*
G01*
X78330Y228650*
X91553*
Y230270*
X93350*
Y234230*
X91553*
Y240270*
X97947*
Y234230*
X96150*
Y230270*
X97947*
Y227284*
X98553*
Y230270*
X100817*
G75*
G02X99100Y232750I933J2480*
G01*
G75*
G02X99552Y234230I2650*
G01*
X98553*
Y240270*
X104947*
Y234230*
X103948*
G75*
G02X104400Y232750I-2198J-1480*
G01*
G75*
G02X102683Y230270I-2650*
G01*
X104947*
Y228650*
X107730*
Y234447*
X113770*
Y228053*
X111650*
Y227284*
X114481*
G75*
G02X113850Y229000I2019J1716*
G01*
G75*
G02X118750Y230400I2650*
G01*
X119025*
G75*
G02X117600Y232750I1225J2350*
G01*
G75*
G02X118700Y234900I2651*
G01*
Y236700*
X113770*
Y235053*
X107730*
Y241447*
X113770*
Y239800*
X116200*
Y241850*
G75*
G02X115100Y244000I1550J2150*
G01*
G75*
G02X115553Y245482I2650*
G01*
X114805*
Y246250*
X114195*
Y245482*
X107805*
Y246250*
X5500*
G37*
X43037Y230850D02*
G36*
G75*
G02X38710Y227284I-4787J1400D01*
G01*
X57790*
G75*
G02X53463Y230850I460J4966*
G01*
X43037*
G37*
X63037D02*
G36*
G75*
G02X58710Y227284I-4787J1400D01*
G01*
X75736*
X72170Y230850*
X63037*
G37*
X119300Y241850D02*
G36*
Y239800D01*
X120250*
G75*
G02X121800Y238250J-1550*
G01*
Y234900*
G75*
G02X122592Y233990I-1546J-2146*
G01*
X129557*
Y233800*
X132450*
Y240982*
X130553*
Y246250*
X121195*
Y245482*
X119947*
G75*
G02X120400Y244000I-2197J-1482*
G01*
G75*
G02X119300Y241850I-2650*
G01*
G37*
X129557Y230700D02*
G36*
Y227284D01*
X144581*
Y230700*
X129557*
G37*
X135550Y236526D02*
G36*
Y233800D01*
X144581*
Y233990*
X152195*
Y228675*
X156759Y233239*
G75*
G02X157750Y233650I990J-987*
G01*
X165053*
Y235270*
X171447*
Y229230*
X165053*
Y230850*
X158330*
X154764Y227284*
X165053*
Y227770*
X171447*
Y227284*
X172053*
Y227770*
X178447*
Y227284*
X204475*
G75*
G02X206025I775J-2534*
G01*
X273226*
G75*
G02X274774I774J-2534*
G01*
X283699*
Y239549*
X292801*
Y227284*
X293699*
Y239549*
X296850*
Y240670*
X295670Y241850*
X278830*
X267491Y230511*
G75*
G02X266500Y230100I-990J987*
G01*
X262500*
G75*
G02X257681Y230850I-2250J1400*
G01*
X178447*
Y229230*
X172053*
Y235270*
X178447*
Y233650*
X193850*
Y246250*
X185230*
X187649Y243831*
G75*
G02X190900Y241250I601J-2581*
G01*
Y241250*
G75*
G02X186891Y238975I-2650*
G01*
G75*
G02X186900Y238750I-2683J-225*
G01*
G75*
G02X181600I-2650*
G01*
G75*
G02X181669Y239351I2667J-1*
G01*
X177170Y243850*
X155500*
G75*
G02X150600Y245250I-2250J1400*
G01*
G75*
G02X150796Y246250I2650J0*
G01*
X144146*
Y240781*
X138462*
G75*
G02X139150Y239000I-1962J-1781*
G01*
G75*
G02X135550Y236526I-2650*
G01*
G37*
X196650Y246250D02*
G36*
Y233650D01*
X258701*
G75*
G02X262500Y232900I1549J-2150*
G01*
X265920*
X277259Y244239*
G75*
G02X278250Y244650I990J-987*
G01*
X296250*
G75*
G02X297241Y244239I0J-1399*
G01*
X299239Y242241*
G75*
G02X299650Y241251I-986J-990*
G01*
G75*
G02Y241250I-1611J0*
G01*
Y239549*
X302801*
Y227284*
X303699*
Y239549*
X312801*
Y227284*
X496250*
Y246250*
X228049*
Y241699*
X212451*
Y244850*
X203500*
G75*
G02X198600Y246250I-2250J1400*
G01*
X196650*
G37*
X5500Y254060D02*
G36*
Y246250D01*
X107805*
Y251518*
X109586*
Y251805*
X107730*
Y253600*
X106500*
G75*
G02X105509Y254011I0J1399*
G01*
X105460Y254060*
X104947*
Y252982*
X98553*
Y254060*
X97947*
Y252982*
X91553*
Y254060*
X5500*
G37*
X112414Y251805D02*
G36*
Y251518D01*
X114195*
Y246250*
X114805*
Y251518*
X121195*
Y246250*
X130553*
Y246781*
X130354*
Y253219*
X137146*
Y249588*
X137553Y249995*
Y253018*
X143947*
Y247219*
X144146*
Y246250*
X150796*
G75*
G02X155500Y246650I2454J-1000*
G01*
X164370*
X159670Y251350*
X158750*
G75*
G02X153850Y252751I-2250J1401*
G01*
G75*
G02X153919Y253351I2650*
G01*
X153210Y254060*
X152394*
Y253707*
X144382*
Y254060*
X133783*
G75*
G02X131717I-1033J2440*
G01*
X129557*
Y253907*
X121943*
Y254060*
X115290*
X114991Y253761*
G75*
G02X114000Y253350I-990J987*
G01*
X113770*
Y251805*
X112414*
G37*
X160744Y254060D02*
G36*
G75*
G02X161241Y253739I-494J-1309D01*
G01*
X166830Y248150*
X182750*
G75*
G02X183741Y247739I0J-1399*
G01*
X185230Y246250*
X193850*
Y254060*
X182185*
G75*
G02X184150Y251500I-685J-2560*
G01*
G75*
G02X179250Y250100I-2650*
G01*
X177750*
G75*
G02X176759Y250511I0J1399*
G01*
X174761Y252509*
G75*
G02X174376Y253230I990J991*
G01*
X172553*
Y254060*
X171947*
Y253230*
X165553*
Y254060*
X160744*
G37*
X178000Y253230D02*
G36*
X178330Y252900D01*
X179250*
G75*
G02X180815Y254060I2250J-1400*
G01*
X178947*
Y253230*
X178000*
G37*
X196650Y253637D02*
G36*
Y246250D01*
X198600*
G75*
G02X203500Y247650I2650*
G01*
X212451*
Y250801*
X228049*
Y246250*
X496250*
Y254060*
X228049*
Y251199*
X212451*
Y254060*
X200291*
G75*
G02X196650Y253637I-2041J1690*
G01*
G37*
X5500Y262576D02*
G36*
Y254060D01*
X91553*
Y254600*
X81500*
G75*
G02X80509Y255011I0J1399*
G01*
X75920Y259600*
X63037*
G75*
G02X53463I-4787J1400*
G01*
X43037*
G75*
G02X33263Y261000I-4787J1400*
G01*
G75*
G02X33519Y262576I4987J0*
G01*
X5500*
G37*
X42982D02*
G36*
G75*
G02X43037Y262400I-4733J-1572D01*
G01*
X53463*
G75*
G02X53518Y262576I4788J-1396*
G01*
X42982*
G37*
X62982D02*
G36*
G75*
G02X63037Y262400I-4733J-1572D01*
G01*
X76500*
G75*
G02X77491Y261989I0J-1399*
G01*
X82080Y257400*
X91553*
Y259018*
X97947*
Y254060*
X98553*
Y259018*
X104947*
Y257400*
X105500*
G75*
G02X106491Y256989I0J-1399*
G01*
X107080Y256400*
X107730*
Y258195*
X113770*
Y256500*
X113850Y256580*
Y257750*
Y257750*
G75*
G02X114261Y258741I1399*
G01*
X118096Y262576*
X117806*
X116241Y261011*
G75*
G02X115250Y260600I-990J987*
G01*
X113770*
Y258805*
X107730*
Y260600*
G75*
G02X106759Y261011I20J1400*
G01*
X105194Y262576*
X62982*
G37*
X104947Y254573D02*
G36*
Y254060D01*
X105460*
X104947Y254573*
G37*
X116239Y255009D02*
G36*
X115290Y254060D01*
X121943*
Y258825*
X121744*
Y261923*
X121403*
X116650Y257170*
Y256000*
Y256000*
G75*
G02X116239Y255009I-1399*
G01*
G37*
X129557Y254246D02*
G36*
Y254060D01*
X131717*
G75*
G02X131357Y254246I1033J2440*
G01*
X129557*
G37*
Y258825D02*
G36*
Y257046D01*
X130157*
G75*
G02X135400Y256500I2593J-546*
G01*
G75*
G02X133783Y254060I-2650*
G01*
X144382*
Y257585*
X144581*
Y262576*
X129756*
Y258825*
X129557*
G37*
X152394Y254876D02*
G36*
Y254060D01*
X153210*
X152394Y254876*
G37*
X152965Y261765D02*
G36*
X152977Y261753D01*
X157080Y257650*
X165553*
Y259270*
X171947*
Y254060*
X172553*
Y259270*
X178947*
Y254060*
X180815*
G75*
G02X182185I685J-2561*
G01*
X193850*
Y262025*
G75*
G02X189250Y261850I-2350J1225*
G01*
X178947*
Y260230*
X172553*
Y262576*
X171947*
Y260230*
X165553*
Y261765*
X152965*
G37*
X158116Y254850D02*
G36*
G75*
G02X158750Y254150I-1617J-2102D01*
G01*
X160250*
G75*
G02X160744Y254060I0J-1400*
G01*
X165553*
Y254850*
X158116*
G37*
X196650Y262576D02*
G36*
Y257863D01*
G75*
G02X200500Y257150I1600J-2112*
G01*
X212451*
Y260301*
X228049*
Y254060*
X496250*
Y262576*
X350969*
Y262354*
X344531*
Y262576*
X342549*
Y260699*
X341034*
G75*
G02X341650Y259001I-2032J-1698*
G01*
G75*
G02Y259000I-3222J0*
G01*
G75*
G02X336350I-2650*
G01*
G75*
G02Y259001I3222J0*
G01*
G75*
G02X336966Y260699I2648*
G01*
X334951*
Y262576*
X196650*
G37*
X200500Y254350D02*
G36*
G75*
G02X200291Y254060I-2250J1401D01*
G01*
X212451*
Y254350*
X200500*
G37*
X5500Y265750D02*
G36*
Y262576D01*
X33519*
G75*
G02X36731Y265750I4732J-1576*
G01*
X5500*
G37*
X39769D02*
G36*
G75*
G02X42982Y262576I-1519J-4750D01*
G01*
X53518*
G75*
G02X56731Y265750I4732J-1576*
G01*
X39769*
G37*
X59769D02*
G36*
G75*
G02X62982Y262576I-1519J-4750D01*
G01*
X105194*
X104788Y262982*
X98553*
Y265750*
X97947*
Y262982*
X91553*
Y264600*
X84000*
G75*
G02X83009Y265011I0J1399*
G01*
X82270Y265750*
X59769*
G37*
X105980D02*
G36*
X107730Y264000D01*
Y265195*
X109350*
Y265750*
X105980*
G37*
X112150D02*
G36*
Y265195D01*
X113770*
Y263400*
X114670*
X117020Y265750*
X112150*
G37*
X117806Y262576D02*
G36*
X118096D01*
X119832Y264312*
G75*
G02X120038Y264482I964J-957*
G01*
X119712*
X117806Y262576*
G37*
X129557Y265750D02*
G36*
Y262703D01*
X129756*
Y262576*
X144581*
Y265750*
X129557*
G37*
X153123Y264893D02*
G36*
X153110Y264880D01*
X165553*
Y265750*
X153980*
X153123Y264893*
G37*
X171947Y265750D02*
G36*
Y262576D01*
X172553*
Y265750*
X171947*
G37*
X178947D02*
G36*
Y264650D01*
X189250*
G75*
G02X190621Y265750I2250J-1400*
G01*
X178947*
G37*
X192379D02*
G36*
G75*
G02X193850Y264475I-879J-2500D01*
G01*
Y265750*
X192379*
G37*
X196650D02*
G36*
Y262576D01*
X334951*
Y265750*
X291852*
G75*
G02X291900Y265250I-2602J-500*
G01*
G75*
G02X287000Y263850I-2650*
G01*
X247500*
G75*
G02X242600Y265250I-2250J1400*
G01*
G75*
G02X242648Y265750I2650J0*
G01*
X196650*
G37*
X342549D02*
G36*
Y262576D01*
X344531*
Y265750*
X342549*
G37*
X350969D02*
G36*
Y262576D01*
X496250*
Y265750*
X350969*
G37*
X5500Y270250D02*
G36*
Y265750D01*
X36731*
G75*
G02X39769I1519J-4750*
G01*
X56731*
G75*
G02X59769I1519J-4751*
G01*
X82270*
X78420Y269600*
X63037*
G75*
G02X53463I-4787J1400*
G01*
X43037*
G75*
G02X33320Y270250I-4787J1400*
G01*
X5500*
G37*
X81730D02*
G36*
X84580Y267400D01*
X91553*
Y269018*
X93350*
Y270250*
X81730*
G37*
X96150D02*
G36*
Y269018D01*
X97947*
Y265750*
X98553*
Y269018*
X100822*
G75*
G02X99413Y270250I928J2483*
G01*
X96150*
G37*
X104087D02*
G36*
G75*
G02X102678Y269018I-2337J1250D01*
G01*
X104947*
Y266783*
X105980Y265750*
X109350*
Y266805*
X107730*
Y270250*
X104087*
G37*
X112150Y266805D02*
G36*
Y265750D01*
X117020*
X118141Y266871*
G75*
G02X119132Y267282I990J-987*
G01*
X120715*
G75*
G02X120100Y268420I784J1159*
G01*
X119601Y268919*
G75*
G02X116663Y270250I-601J2581*
G01*
X113770*
Y266805*
X112150*
G37*
X129557Y269450D02*
G36*
Y265750D01*
X144581*
Y269450*
X129557*
G37*
X152195Y270250D02*
G36*
Y267925D01*
X154520Y270250*
X152195*
G37*
X157080Y268850D02*
G36*
X153980Y265750D01*
X165553*
Y266270*
X171947*
Y265750*
X172553*
Y266270*
X178947*
Y265750*
X190621*
G75*
G02X192379I879J-2500*
G01*
X193850*
Y268850*
X179447*
Y267230*
X173053*
Y270250*
X172447*
Y267230*
X166053*
Y268850*
X157080*
G37*
X196650Y270250D02*
G36*
Y265750D01*
X242648*
G75*
G02X247500Y266650I2602J-500*
G01*
X287000*
G75*
G02X291852Y265750I2250J-1400*
G01*
X334951*
Y268801*
X342549*
Y265750*
X344531*
Y269146*
X350969*
Y265750*
X496250*
Y270250*
X350770*
Y269553*
X344730*
Y270250*
X342549*
Y269699*
X334951*
Y270250*
X284900*
G75*
G02X280000Y268850I-2650*
G01*
X242500*
G75*
G02X237600Y270250I-2250J1400*
G01*
X196650*
G37*
X5500Y273677D02*
G36*
Y270250D01*
X33320*
G75*
G02X33263Y271000I4931J750*
G01*
G75*
G02X34043Y273677I4987*
G01*
X5500*
G37*
X42457D02*
G36*
G75*
G02X43037Y272400I-4207J-2678D01*
G01*
X53463*
G75*
G02X54043Y273677I4787J-1401*
G01*
X42457*
G37*
X62457D02*
G36*
G75*
G02X63037Y272400I-4208J-2678D01*
G01*
X79000*
G75*
G02X79991Y271989I0J-1399*
G01*
X81730Y270250*
X93350*
Y272982*
X91553*
Y273677*
X62457*
G37*
X96150Y272982D02*
G36*
Y270250D01*
X99413*
G75*
G02X99100Y271500I2337J1249*
G01*
G75*
G02X99553Y272982I2650J0*
G01*
X98553*
Y273677*
X97947*
Y272982*
X96150*
G37*
X104400Y271500D02*
G36*
G75*
G02X104087Y270250I-2650J-1D01*
G01*
X107730*
Y273195*
X113770*
Y270250*
X116663*
G75*
G02X116350Y271500I2337J1250*
G01*
G75*
G02X117489Y273677I2650*
G01*
X104947*
Y272982*
X103947*
G75*
G02X104400Y271500I-2197J-1482*
G01*
G37*
X121650D02*
G36*
G75*
G02X121581Y270899I-2667J1D01*
G01*
X121943Y270537*
Y272738*
X129557*
Y272550*
X132450*
Y273677*
X120511*
G75*
G02X121650Y271500I-1511J-2177*
G01*
G37*
X135550Y273677D02*
G36*
Y272550D01*
X144581*
Y272738*
X152195*
Y270250*
X154520*
X155509Y271239*
G75*
G02X156500Y271650I990J-987*
G01*
X166053*
Y273270*
X172447*
Y270250*
X173053*
Y273270*
X179447*
Y271650*
X193850*
Y273677*
X188383*
G75*
G02X184117I-2133J1573*
G01*
X135550*
G37*
X196650D02*
G36*
Y270250D01*
X237600*
G75*
G02X242500Y271650I2650*
G01*
X280000*
G75*
G02X284900Y270250I2250J-1400*
G01*
X334951*
Y273677*
X228049*
Y270699*
X212451*
Y273677*
X202383*
G75*
G02X198117I-2133J1573*
G01*
X196650*
G37*
X342549Y271350D02*
G36*
Y270250D01*
X344730*
Y271350*
X342549*
G37*
X350770Y273677D02*
G36*
Y270250D01*
X496250*
Y273677*
X350770*
G37*
X5500Y278000D02*
G36*
Y273677D01*
X34043*
G75*
G02X42457I4207J-2677*
G01*
X54043*
G75*
G02X62457I4207J-2677*
G01*
X91553*
Y278000*
X5500*
G37*
X97947D02*
G36*
Y273677D01*
X98553*
Y278000*
X97947*
G37*
X104947D02*
G36*
Y273677D01*
X117489*
G75*
G02X120511I1511J-2177*
G01*
X132450*
Y276850*
G75*
G02X131546Y278000I1550J2150*
G01*
X117942*
X115846Y275904*
G75*
G02X114749Y275450I-1096J1096*
G01*
X113770*
Y273805*
X107730*
Y278000*
X104947*
G37*
X135550Y276850D02*
G36*
Y273677D01*
X184117*
G75*
G02X184000Y273850I2133J1574*
G01*
X165750*
G75*
G02X164759Y274261I0J1399*
G01*
X161020Y278000*
X136454*
G75*
G02X135550Y276850I-2454J1000*
G01*
G37*
X164980Y278000D02*
G36*
X166330Y276650D01*
X184000*
G75*
G02X188900Y275250I2250J-1400*
G01*
G75*
G02X188383Y273677I-2650*
G01*
X193850*
Y278000*
X164980*
G37*
X196650D02*
G36*
Y273677D01*
X198117*
G75*
G02X197600Y275250I2133J1573*
G01*
G75*
G02X202500Y276650I2650*
G01*
X212451*
Y278000*
X196650*
G37*
X202500Y273850D02*
G36*
G75*
G02X202383Y273677I-2250J1401D01*
G01*
X212451*
Y273850*
X202500*
G37*
X228049Y278000D02*
G36*
Y273677D01*
X334951*
Y277801*
X342549*
Y274150*
X344730*
Y275947*
X350770*
Y273677*
X496250*
Y278000*
X228049*
G37*
X5500Y293185D02*
G36*
Y278000D01*
X91553*
Y279018*
X97947*
Y278000*
X98553*
Y279018*
X104947*
Y278000*
X107730*
Y280195*
X113770*
Y278550*
X114108*
X116450Y280892*
Y282982*
X114805*
Y289018*
X121195*
Y287550*
X127749*
G75*
G02X128846Y287096I1J-1550*
G01*
X130553Y285389*
Y286518*
X134576*
X134589Y286531*
X130604*
Y292124*
X130241Y291761*
G75*
G02X129250Y291350I-990J987*
G01*
X128000*
G75*
G02X123100Y292750I-2250J1400*
G01*
G75*
G02X123136Y293185I2651J0*
G01*
X116665*
X114991Y291511*
G75*
G02X114000Y291100I-990J987*
G01*
X113770*
Y289305*
X112400*
Y289018*
X114195*
Y282982*
X107805*
Y289018*
X109600*
Y289305*
X107730*
Y292100*
X104947*
Y290482*
X98553*
Y293185*
X97947*
Y290482*
X91553*
Y292100*
X81500*
G75*
G02X80509Y292511I0J1399*
G01*
X79835Y293185*
X5500*
G37*
X119096Y279154D02*
G36*
X117942Y278000D01*
X131546*
G75*
G02X131350Y279000I2454J999*
G01*
G75*
G02X131803Y280482I2650*
G01*
X130553*
Y281950*
X130251*
G75*
G02X129154Y282404I-1J1550*
G01*
X127108Y284450*
X121195*
Y282982*
X119550*
Y280250*
G75*
G02X119096Y279154I-1551J0*
G01*
G37*
X131665Y293185D02*
G36*
X131448Y292969D01*
X137396*
Y289338*
X137805Y289747*
Y292770*
X144195*
Y286730*
X139172*
X139161Y286719*
X144146*
Y280281*
X137354*
Y284912*
X136947Y284505*
Y280482*
X136197*
G75*
G02X136650Y279000I-2197J-1482*
G01*
G75*
G02X136454Y278000I-2650J-1*
G01*
X161020*
X160851Y278169*
G75*
G02X157600Y280750I-601J2581*
G01*
G75*
G02X162900I2650*
G01*
G75*
G02X162831Y280149I-2667J1*
G01*
X164980Y278000*
X193850*
Y293185*
X180545*
X180899Y292831*
G75*
G02X184150Y290250I601J-2581*
G01*
G75*
G02X178850I-2650*
G01*
G75*
G02X178919Y290851I2667J-1*
G01*
X177040Y292730*
X173053*
Y293185*
X172447*
Y292730*
X166053*
Y293185*
X160364*
G75*
G02X160400Y292751I-2611J-434*
G01*
G75*
G02Y292750I-2707J0*
G01*
G75*
G02X155100I-2650*
G01*
G75*
G02X155136Y293185I2667J-1*
G01*
X131665*
G37*
X196650D02*
G36*
Y278000D01*
X212451*
Y279801*
X228049*
Y278000*
X496250*
Y293185*
X271498*
Y291459*
X263096*
Y293185*
X249451*
Y291459*
X247608*
G75*
G02X247900Y290250I-2360J-1209*
G01*
G75*
G02X242600I-2650*
G01*
G75*
G02X242892Y291459I2652J0*
G01*
X241049*
Y293185*
X220795*
X221239Y292741*
G75*
G02X221650Y291751I-986J-990*
G01*
G75*
G02Y291750I-1611J0*
G01*
Y289301*
X228049*
Y280199*
X212451*
Y289301*
X218850*
Y291170*
X216835Y293185*
X196650*
G37*
X5500Y308500D02*
G36*
Y293185D01*
X79835*
X75920Y297100*
X63037*
G75*
G02X53463I-4787J1400*
G01*
X43037*
G75*
G02X33263Y298500I-4787J1400*
G01*
G75*
G02X43037Y299900I4987*
G01*
X53463*
G75*
G02X63037I4787J-1400*
G01*
X76500*
G75*
G02X77491Y299489I0J-1399*
G01*
X82080Y294900*
X91553*
Y296518*
X97947*
Y293185*
X98553*
Y296518*
X104947*
Y294900*
X107730*
Y295695*
X113770*
Y294250*
X115100Y295580*
Y301500*
Y301500*
G75*
G02X115511Y302491I1399*
G01*
X117332Y304312*
G75*
G02X117663Y304558I988J-985*
G01*
G75*
G02X117127Y304893I456J1326*
G01*
X115920Y306100*
X113770*
Y304305*
X112295*
Y303682*
G75*
G02X112307Y303488I-1587J-197*
G01*
Y302695*
X113770*
Y296305*
X107730*
Y302100*
X104947*
Y300482*
X98553*
Y306518*
X100822*
G75*
G02X99147Y308500I928J2483*
G01*
X96150*
Y306518*
X97947*
Y300482*
X91553*
Y302100*
X85250*
G75*
G02X84259Y302511I0J1399*
G01*
X79670Y307100*
X63037*
G75*
G02X53463I-4787J1400*
G01*
X43037*
G75*
G02X33263Y308500I-4787J1400*
G01*
X5500*
G37*
X82230D02*
G36*
X85830Y304900D01*
X91553*
Y306518*
X93350*
Y308500*
X82230*
G37*
X104353D02*
G36*
G75*
G02X102678Y306518I-2602J500D01*
G01*
X104947*
Y304900*
X107730*
Y308500*
X104353*
G37*
X117489Y294009D02*
G36*
X116665Y293185D01*
X123136*
G75*
G02X123366Y293907I2614J-435*
G01*
X121943*
Y298825*
X121744*
Y301923*
X118903*
X117900Y300920*
Y295000*
Y295000*
G75*
G02X117489Y294009I-1399*
G01*
G37*
X117480Y308500D02*
G36*
G75*
G02X117491Y308489I-980J-991D01*
G01*
X117700Y308280*
G75*
G02X117648Y308500I2551J719*
G01*
X117480*
G37*
X129557Y298825D02*
G36*
Y295037D01*
X131169Y296649*
G75*
G02X131100Y297250I2592J602*
G01*
G75*
G02X136400I2650*
G01*
G75*
G02X133149Y294669I-2650*
G01*
X131665Y293185*
X155136*
G75*
G02X155169Y293351I2632J-436*
G01*
X152394Y296126*
Y293707*
X144382*
Y297585*
X144581*
Y308500*
X129557*
Y302703*
X129756*
Y298825*
X129557*
G37*
X152195Y308500D02*
G36*
Y307282D01*
X152302*
X153520Y308500*
X152195*
G37*
X153715Y301765D02*
G36*
X153727Y301753D01*
X158330Y297150*
X166053*
Y298770*
X172447*
Y293185*
X173053*
Y298770*
X179447*
Y294283*
X180545Y293185*
X193850*
Y302025*
G75*
G02X189250Y301850I-2350J1225*
G01*
X179447*
Y300230*
X173053*
Y306270*
X179447*
Y304650*
X189250*
G75*
G02X193850Y304475I2250J-1400*
G01*
Y308420*
X193770Y308500*
X179447*
Y307730*
X173053*
Y308500*
X172447*
Y307730*
X166053*
Y308500*
X157480*
X153873Y304893*
X153860Y304880*
X166053*
Y306270*
X172447*
Y300230*
X166053*
Y301765*
X153715*
G37*
X159863Y294350D02*
G36*
G75*
G02X160364Y293185I-2110J-1599D01*
G01*
X166053*
Y294350*
X159863*
G37*
X196650Y308500D02*
G36*
Y293185D01*
X216835*
X214170Y295850*
X203500*
G75*
G02X198600Y297250I-2250J1400*
G01*
G75*
G02X203500Y298650I2650*
G01*
X214750*
G75*
G02X215741Y298239I0J-1399*
G01*
X220795Y293185*
X241049*
Y304496*
X240226*
X237831Y302101*
G75*
G02X237900Y301500I-2592J-602*
G01*
G75*
G02X232600I-2650*
G01*
G75*
G02X234371Y304000I2650J0*
G01*
G75*
G02X232600Y306500I878J2500*
G01*
G75*
G02X233511Y308500I2650*
G01*
X221730*
X221241Y308011*
G75*
G02X220250Y307600I-990J987*
G01*
X217500*
G75*
G02X212648Y308500I-2250J1400*
G01*
X196650*
G37*
X249451D02*
G36*
Y293185D01*
X263096*
Y308500*
X249451*
G37*
X271498D02*
G36*
Y293185D01*
X496250*
Y308500*
X371989*
G75*
G02X372900Y306500I-1739J-2000*
G01*
G75*
G02X368000Y305100I-2650*
G01*
X278750*
G75*
G02X277379Y304000I-2250J1401*
G01*
G75*
G02X278750Y302900I-879J-2501*
G01*
X344500*
G75*
G02X349400Y301500I2250J-1400*
G01*
G75*
G02X344500Y300100I-2650*
G01*
X278750*
G75*
G02X273850Y301500I-2250J1400*
G01*
G75*
G02X275621Y304000I2650J0*
G01*
G75*
G02X273850Y306500I879J2500*
G01*
G75*
G02X274761Y308500I2650*
G01*
X271498*
G37*
X278239D02*
G36*
G75*
G02X278750Y307900I-1739J-2000D01*
G01*
X368000*
G75*
G02X368511Y308500I2250J-1400*
G01*
X278239*
G37*
X5500Y325750D02*
G36*
Y308500D01*
X33263*
G75*
G02X43037Y309900I4987*
G01*
X53463*
G75*
G02X63037I4787J-1400*
G01*
X80250*
G75*
G02X81241Y309489I0J-1399*
G01*
X82230Y308500*
X93350*
Y310482*
X91553*
Y316518*
X97947*
Y310482*
X96150*
Y308500*
X99147*
G75*
G02X99100Y309000I2603J498*
G01*
G75*
G02X99553Y310482I2650J0*
G01*
X98553*
Y316518*
X104947*
Y310482*
X103947*
G75*
G02X104400Y309000I-2197J-1482*
G01*
G75*
G02X104353Y308500I-2650J-2*
G01*
X107730*
Y310695*
X113770*
Y308900*
X116500*
G75*
G02X117480Y308500I0J-1400*
G01*
X117648*
G75*
G02X117600Y309000I2602J500*
G01*
G75*
G02X119928Y311630I2650*
G01*
X118608Y312950*
X113770*
Y311305*
X107730*
Y317695*
X107944*
G75*
G02X107600Y319000I2307J1306*
G01*
G75*
G02X112900I2650*
G01*
G75*
G02X112556Y317695I-2651J0*
G01*
X113770*
Y316050*
X119249*
G75*
G02X120346Y315596I1J-1550*
G01*
X123204Y312738*
X129557*
Y312550*
X144581*
Y312738*
X152195*
Y308500*
X153520*
X156759Y311739*
G75*
G02X157750Y312150I990J-987*
G01*
X166053*
Y313770*
X172447*
Y308500*
X173053*
Y313770*
X179447*
Y312150*
X193500*
G75*
G02X194491Y311739I0J-1399*
G01*
X196239Y309991*
G75*
G02X196650Y309001I-986J-990*
G01*
G75*
G02Y309000I-1611J0*
G01*
Y308500*
X212648*
G75*
G02X212600Y309000I2602J500*
G01*
G75*
G02X217500Y310400I2650*
G01*
X219670*
X221273Y312003*
G75*
G02X221479Y312173I964J-957*
G01*
X221250*
G75*
G02X216350Y313573I-2250J1400*
G01*
G75*
G02X221250Y314973I2650*
G01*
X238215*
G75*
G02X238009Y315143I758J1128*
G01*
X235802Y317350*
X232270*
Y315553*
X226230*
Y321947*
X232270*
Y320150*
X236382*
G75*
G02X237373Y319739I0J-1399*
G01*
X239580Y317532*
X241049*
Y322892*
X249451*
Y322800*
X251200*
Y323100*
G75*
G02X250100Y325250I1550J2150*
G01*
G75*
G02X250148Y325750I2650*
G01*
X232469*
Y322354*
X226031*
Y325750*
X5500*
G37*
X129557Y309450D02*
G36*
Y308500D01*
X144581*
Y309450*
X129557*
G37*
X158330Y309350D02*
G36*
X157480Y308500D01*
X166053*
Y309350*
X158330*
G37*
X179447D02*
G36*
Y308500D01*
X193770*
X192920Y309350*
X179447*
G37*
X222844Y309614D02*
G36*
X221730Y308500D01*
X233511*
G75*
G02X235851Y309081I1739J-2000*
G01*
X236214Y309444*
G75*
G02X236420Y309614I964J-957*
G01*
X222844*
G37*
X249451Y317141D02*
G36*
Y308500D01*
X263096*
Y312023*
X255678*
G75*
G02X254581Y312477I-1J1550*
G01*
X251654Y315404*
G75*
G02X251200Y316500I1097J1096*
G01*
Y317141*
X249451*
G37*
X254300Y323100D02*
G36*
Y317142D01*
X256319Y315123*
X263096*
Y319409*
X262898*
Y323091*
X271697*
Y320248*
X279230*
Y321947*
X285270*
Y315553*
X284397*
G75*
G02X284900Y314000I-2147J-1553*
G01*
G75*
G02X283475Y311650I-2650*
G01*
X284920*
X286669Y313399*
G75*
G02X286600Y314000I2580J602*
G01*
G75*
G02X287103Y315553I2650J0*
G01*
X286230*
Y321947*
X292270*
Y320150*
X303170*
X306259Y323239*
G75*
G02X307250Y323650I990J-987*
G01*
X309699*
Y325750*
X292469*
Y322354*
X286031*
Y325750*
X285469*
Y322354*
X279031*
Y325750*
X255352*
G75*
G02X255400Y325250I-2604J-500*
G01*
G75*
G02X254300Y323100I-2651*
G01*
G37*
X271498Y314732D02*
G36*
Y308500D01*
X274761*
G75*
G02X278239I1739J-2000*
G01*
X368511*
G75*
G02X371989I1739J-2000*
G01*
X496250*
Y325750*
X330801*
Y314451*
X327726*
G75*
G02X328900Y312250I-1475J-2200*
G01*
Y312250*
G75*
G02X323600I-2650*
G01*
Y312250*
G75*
G02X324774Y314451I2649*
G01*
X321699*
Y325750*
X318801*
Y314451*
X309699*
Y320850*
X307830*
X304741Y317761*
G75*
G02X303750Y317350I-990J987*
G01*
X292270*
Y315553*
X291397*
G75*
G02X291900Y314000I-2147J-1554*
G01*
G75*
G02X288649Y311419I-2650*
G01*
X286491Y309261*
G75*
G02X285500Y308850I-990J987*
G01*
X279000*
G75*
G02X278009Y309261I0J1399*
G01*
X272538Y314732*
X271498*
G37*
X5500Y329250D02*
G36*
Y325750D01*
X226031*
Y329146*
X232469*
Y325750*
X250148*
G75*
G02X250288Y326230I2603J-501*
G01*
X249553*
Y329250*
X5500*
G37*
X255212Y326230D02*
G36*
G75*
G02X255352Y325750I-2463J-980D01*
G01*
X279031*
Y329146*
X285469*
Y325750*
X286031*
Y329146*
X292469*
Y325750*
X309699*
Y329250*
X263146*
Y326031*
X256354*
Y329250*
X255947*
Y326230*
X255212*
G37*
X318801Y329250D02*
G36*
Y325750D01*
X321699*
Y329250*
X318801*
G37*
X330801D02*
G36*
Y325750D01*
X496250*
Y329250*
X330801*
G37*
X5500Y340250D02*
G36*
Y329250D01*
X249553*
Y332270*
X255947*
Y329250*
X256354*
Y332469*
X263146*
Y329250*
X309699*
Y330049*
X318801*
Y329250*
X321699*
Y330049*
X330801*
Y329250*
X496250*
Y340250*
X217900*
G75*
G02X213000Y338850I-2650*
G01*
X132500*
G75*
G02X127600Y340250I-2250J1400*
G01*
X5500*
G37*
Y345250D02*
G36*
Y340250D01*
X127600*
G75*
G02X132500Y341650I2650*
G01*
X213000*
G75*
G02X217900Y340250I2250J-1400*
G01*
X496250*
Y345250*
X221650*
G75*
G02X216750Y343850I-2650*
G01*
X156000*
G75*
G02X151100Y345250I-2250J1400*
G01*
X5500*
G37*
Y353250D02*
G36*
Y345250D01*
X151100*
G75*
G02X156000Y346650I2650*
G01*
X216750*
G75*
G02X221650Y345250I2250J-1400*
G01*
X496250*
Y353250*
X361469*
Y349854*
X355031*
Y353250*
X145469*
Y349854*
X139031*
Y353250*
X5500*
G37*
Y360250D02*
G36*
Y353250D01*
X139031*
Y356646*
X145469*
Y353250*
X355031*
Y356646*
X361469*
Y353250*
X496250*
Y360250*
X380646*
Y357031*
X373854*
Y360250*
X373447*
Y357230*
X367053*
Y360250*
X361270*
Y357053*
X355230*
Y360250*
X349947*
Y357230*
X343553*
Y360250*
X343146*
Y357031*
X336354*
Y360250*
X164146*
Y357031*
X157354*
Y360250*
X156947*
Y357230*
X150553*
Y360250*
X145270*
Y357053*
X139230*
Y358052*
G75*
G02X135100Y360250I-1480J2198*
G01*
X133447*
Y357230*
X127053*
Y360250*
X126646*
Y357031*
X119854*
Y360250*
X5500*
G37*
Y381825D02*
G36*
Y360250D01*
X119854*
Y363469*
X126646*
Y360250*
X127053*
Y363270*
X128489*
G75*
G02X127600Y365250I1761J1980*
G01*
G75*
G02X128850Y367500I2650*
G01*
Y381825*
X105111*
G75*
G02X91987I-6562*
G01*
X5500*
G37*
X131650D02*
G36*
Y367500D01*
G75*
G02X132900Y365250I-1400J-2250*
G01*
G75*
G02X132011Y363270I-2650*
G01*
X133447*
Y360250*
X135100*
G75*
G02X139230Y362448I2650*
G01*
Y363447*
X145270*
Y360250*
X150553*
Y363270*
X151989*
G75*
G02X151100Y365250I1761J1980*
G01*
G75*
G02X152661Y367666I2650*
G01*
Y381825*
X131650*
G37*
X155461D02*
G36*
Y367274D01*
G75*
G02X156400Y365250I-1711J-2024*
G01*
G75*
G02X155511Y363270I-2650J0*
G01*
X156947*
Y360250*
X157354*
Y363469*
X164146*
Y360250*
X336354*
Y363469*
X343146*
Y360250*
X343553*
Y363270*
X344989*
G75*
G02X344100Y365250I1761J1980*
G01*
G75*
G02X345350Y367500I2650*
G01*
Y381825*
X321592*
G75*
G02X321611Y381325I-6543J-498*
G01*
G75*
G02X308487I-6562*
G01*
G75*
G02X308506Y381825I6562J2*
G01*
X192513*
G75*
G02X179389I-6562*
G01*
X155461*
G37*
X348150D02*
G36*
Y367500D01*
G75*
G02X349400Y365250I-1400J-2250*
G01*
G75*
G02X348511Y363270I-2650*
G01*
X349947*
Y360250*
X355230*
Y363447*
X355808*
G75*
G02X355100Y365250I1945J1804*
G01*
G75*
G02X360400I2650*
G01*
Y365250*
G75*
G02X359800Y363571I-2648*
G01*
Y363447*
X361270*
Y360250*
X367053*
Y363270*
X368489*
G75*
G02X367600Y365250I1761J1980*
G01*
G75*
G02X368850Y367500I2650*
G01*
Y381825*
X348150*
G37*
X371650D02*
G36*
Y367500D01*
G75*
G02X372900Y365250I-1400J-2250*
G01*
G75*
G02X372011Y363270I-2650*
G01*
X373447*
Y360250*
X373854*
Y363469*
X380646*
Y360250*
X496250*
Y381825*
X408994*
G75*
G02X409013Y381325I-6543J-498*
G01*
G75*
G02X395889I-6562*
G01*
G75*
G02X395908Y381825I6562J2*
G01*
X371650*
G37*
X5500Y399250D02*
G36*
Y381825D01*
X91987*
G75*
G02X105111I6562*
G01*
X128850*
Y390698*
G75*
G02X126389Y394423I1589J3726*
G01*
G75*
G02X134270Y395735I4050*
G01*
G75*
G02X142356I4043J-1312*
G01*
G75*
G02X150124Y395373I3831J-1312*
G01*
G75*
G02X158111Y394423I3937J-950*
G01*
G75*
G02X155461Y390623I-4050*
G01*
Y381825*
X179389*
G75*
G02X192513I6562*
G01*
X308506*
G75*
G02X321592I6543J-500*
G01*
X345350*
Y390198*
G75*
G02X342889Y393923I1589J3726*
G01*
G75*
G02X350770Y395235I4050*
G01*
G75*
G02X358856I4043J-1312*
G01*
G75*
G02X366624Y394873I3831J-1312*
G01*
G75*
G02X374611Y393923I3937J-950*
G01*
Y393923*
G75*
G02X371650Y390022I-4049*
G01*
Y381825*
X395908*
G75*
G02X408994I6543J-500*
G01*
X496250*
Y399250*
X492750Y402750*
X476500*
G75*
G02X466500Y405250J21250*
G01*
X412537*
G75*
G02X412556Y404750I-6543J-498*
G01*
G75*
G02X399432I-6562*
G01*
G75*
G02X399451Y405250I6562J2*
G01*
X318049*
G75*
G02X318068Y404750I-6543J-498*
G01*
G75*
G02X304944I-6562*
G01*
G75*
G02X304963Y405250I6562J2*
G01*
X196056*
G75*
G02X182932I-6562*
G01*
X101568*
G75*
G02X88444I-6562*
G01*
X34000*
G75*
G02X24000Y402750I-10000J18750*
G01*
X9000*
X5500Y399250*
G37*
X131650Y390559D02*
G36*
Y381825D01*
X152661*
Y390623*
G75*
G02X150124Y393473I1401J3801*
G01*
G75*
G02X142356Y393111I-3937J950*
G01*
G75*
G02X134270I-4043J1312*
G01*
G75*
G02X131650Y390559I-3832J1312*
G01*
G37*
X348150Y390059D02*
G36*
Y381825D01*
X368850*
Y390252*
G75*
G02X366624Y392973I1711J3670*
G01*
G75*
G02X358856Y392611I-3937J950*
G01*
G75*
G02X350770I-4043J1312*
G01*
G75*
G02X348150Y390059I-3832J1312*
G01*
G37*
X44085Y417061D02*
G36*
G75*
G02X34000Y405250I-20085J6939D01*
G01*
X88444*
G75*
G02X101568I6562*
G01*
X182932*
G75*
G02X196056I6562*
G01*
X304963*
G75*
G02X318049I6543J-500*
G01*
X399451*
G75*
G02X412537I6543J-500*
G01*
X466500*
G75*
G02X456415Y417061I10000J18750*
G01*
X407257*
G75*
G02X407288Y416561I-4019J-501*
G01*
G75*
G02X399188I-4050*
G01*
G75*
G02X399219Y417061I4050J-1*
G01*
X318769*
G75*
G02X311329I-3720J5406*
G01*
X190788*
G75*
G02X182688I-4050*
G01*
X101410*
G75*
G02X95689I-2861J5906*
G01*
X44085*
G37*
X45225Y422967D02*
G36*
G75*
G02X44085Y417061I-21225J1034D01*
G01*
X95689*
G75*
G02X91987Y422967I2861J5906*
G01*
X45225*
G37*
X105111D02*
G36*
G75*
G02X101410Y417061I-6562D01*
G01*
X182688*
G75*
G02X190788I4050*
G01*
X311329*
G75*
G02X308487Y422467I3720J5406*
G01*
G75*
G02X308506Y422967I6562J2*
G01*
X189186*
G75*
G02X182715I-3235J5709*
G01*
X105111*
G37*
X321611Y422467D02*
G36*
G75*
G02X318769Y417061I-6562D01*
G01*
X399219*
G75*
G02X407257I4019J-500*
G01*
X456415*
G75*
G02X455275Y422967I20085J6939*
G01*
X406442*
G75*
G02X398460I-3991J5209*
G01*
X321592*
G75*
G02X321611Y422467I-6543J-498*
G01*
G37*
X45250Y424000D02*
G36*
G75*
G02X45225Y422967I-21255J1D01*
G01*
X91987*
G75*
G02X105111I6562*
G01*
X182715*
G75*
G02X179389Y428675I3235J5709*
G01*
G75*
G02X192513I6562*
G01*
G75*
G02X189186Y422967I-6562*
G01*
X308506*
G75*
G02X321592I6543J-500*
G01*
X398460*
G75*
G02X395889Y428175I3991J5209*
G01*
G75*
G02X409013I6562*
G01*
G75*
G02X406442Y422967I-6562*
G01*
X455275*
G75*
G02X455250Y424000I21230J1035*
G01*
Y441500*
X451750Y445000*
X48750*
X45250Y441500*
Y424000*
G37*
D02*
D13*
X110750Y238250D02*
X117750D01*
X110750Y277000D02*
X114750D01*
X118000Y280250*
Y286000*
X110750Y314500D02*
X119250D01*
X122750Y311000*
X125750*
X110750Y314500D02*
Y318500D01*
X110250Y319000*
X117750Y204000D02*
Y208250D01*
X118000Y208500*
X117750Y238250D02*
X120250D01*
Y232750*
X117750Y244000D02*
Y238250D01*
X118000Y248500D02*
X117750Y248250D01*
Y244000*
X118000Y286000D02*
X127750D01*
X130250Y283500*
X133750*
X121635Y358635D02*
X119781Y356781D01*
X121635Y361865D02*
X119781Y363719D01*
X123494Y222014D02*
X121494D01*
X123494Y260764D02*
X121494D01*
X123494Y300764D02*
X121494D01*
X124865Y358635D02*
X126719Y356781D01*
X124865Y361865D02*
X126719Y363719D01*
X125750Y232250D02*
X134000D01*
X125750D02*
X120750D01*
X120250Y232750*
X125750Y271000D02*
X133750D01*
X125750Y311000D02*
X148388D01*
X128006Y222014D02*
X130006D01*
X128006Y260764D02*
X130006D01*
X128006Y300764D02*
X130006D01*
X132135Y209385D02*
X130281Y207531D01*
X132135Y212615D02*
X130281Y214469D01*
X132135Y248385D02*
X130281Y246531D01*
X132135Y251615D02*
X130281Y253469D01*
X132354Y289750D02*
X130354D01*
X133750Y205000D02*
X126750D01*
X124000Y207750*
X118750*
X118000Y208500*
X133750Y271000D02*
X148388D01*
X133750Y283500D02*
Y279250D01*
X134000Y279000*
Y232250D02*
Y239000D01*
Y243750*
X133750Y244000*
X134000Y279000D02*
Y271250D01*
X133750Y271000*
X134000Y291219D02*
Y293219D01*
X135365Y212615D02*
X137219Y214469D01*
X135365Y251615D02*
X137219Y253469D01*
X136500Y239000D02*
X134000D01*
X136545Y392656D02*
X135131Y391241D01*
X136545Y396191D02*
X135131Y397605D01*
X137750Y360250D02*
X142250D01*
X139135Y203385D02*
X137281Y201531D01*
X140081Y392656D02*
X141495Y391241D01*
X140081Y396191D02*
X141495Y397605D01*
X140635Y351635D02*
X138781Y349781D01*
X140635Y354865D02*
X138781Y356719D01*
X140750Y211000D02*
X139750D01*
X133750Y205000*
X140750Y242531D02*
Y240531D01*
Y250000D02*
X139750D01*
X133750Y244000*
X140750Y282031D02*
Y280031D01*
X141000Y289750D02*
X140000D01*
X133750Y283500*
X142365Y203385D02*
X144219Y201531D01*
X142365Y206615D02*
X144219Y208469D01*
X142396Y244000D02*
X144396D01*
X142396Y283500D02*
X144396D01*
X143865Y351635D02*
X145719Y349781D01*
X143865Y354865D02*
X145719Y356719D01*
X146132Y216896D02*
X144132D01*
X146132Y255646D02*
X144132D01*
X146132Y295646D02*
X144132D01*
X148388Y216707D02*
Y214707D01*
Y232250D02*
X134000D01*
X148388Y255457D02*
Y253457D01*
Y295457D02*
Y293457D01*
X150644Y216896D02*
X152644D01*
X155135Y33635D02*
X153281Y31781D01*
X155135Y36865D02*
X153281Y38719D01*
X155135Y69635D02*
X153281Y67781D01*
X155135Y72865D02*
X153281Y74719D01*
X155135Y103635D02*
X153281Y101781D01*
X155135Y106865D02*
X153281Y108719D01*
X158365Y33635D02*
X160219Y31781D01*
X158365Y36865D02*
X160219Y38719D01*
X158365Y69635D02*
X160219Y67781D01*
X158365Y72865D02*
X160219Y74719D01*
X158365Y103635D02*
X160219Y101781D01*
X158365Y106865D02*
X160219Y108719D01*
X159135Y358635D02*
X157281Y356781D01*
X159135Y361865D02*
X157281Y363719D01*
X162365Y358635D02*
X164219Y356781D01*
X162365Y361865D02*
X164219Y363719D01*
X171500Y157750D02*
X177750D01*
X178750Y158750*
X227635Y324135D02*
X225781Y322281D01*
X227635Y327365D02*
X225781Y329219D01*
X230865Y324135D02*
X232719Y322281D01*
X230865Y327365D02*
X232719Y329219D01*
X245250Y293100D02*
Y290250D01*
Y318691D02*
X252750D01*
X245250Y321250D02*
X252750D01*
Y318691D02*
Y321250D01*
Y325250*
Y329250D02*
Y325250D01*
X258135Y327635D02*
X256281Y325781D01*
X258135Y330865D02*
X256281Y332719D01*
X261365Y327635D02*
X263219Y325781D01*
X261365Y330865D02*
X263219Y332719D01*
X264648Y321250D02*
X262648D01*
X267297Y313573D02*
X255677D01*
X252750Y316500*
Y318691*
X267297Y321341D02*
Y323341D01*
X269947Y321250D02*
X271947D01*
X280635Y324135D02*
X278781Y322281D01*
X280635Y327365D02*
X278781Y329219D01*
X283865Y324135D02*
X285719Y322281D01*
X283865Y327365D02*
X285719Y329219D01*
X287635Y324135D02*
X285781Y322281D01*
X287635Y327365D02*
X285781Y329219D01*
X290865Y324135D02*
X292719Y322281D01*
X290865Y327365D02*
X292719Y329219D01*
X292250Y39750D02*
X290250D01*
X294750Y37250D02*
Y35250D01*
Y42250D02*
Y44250D01*
X297250Y39750D02*
X299250D01*
X338135Y358635D02*
X336281Y356781D01*
X338135Y361865D02*
X336281Y363719D01*
X338750Y264750D02*
Y259250D01*
X339000Y259000*
X341365Y358635D02*
X343219Y356781D01*
X341365Y361865D02*
X343219Y363719D01*
X344104Y87250D02*
X342104D01*
X344135Y92635D02*
X342281Y90781D01*
X344135Y95865D02*
X342281Y97719D01*
X344135Y139635D02*
X342281Y137781D01*
X344135Y142865D02*
X342281Y144719D01*
X344135Y147135D02*
X342281Y145281D01*
X344135Y150365D02*
X342281Y152219D01*
X345750Y85781D02*
Y83781D01*
Y88719D02*
Y90719D01*
X346135Y264135D02*
X344281Y262281D01*
X346135Y267365D02*
X344281Y269219D01*
X347365Y92635D02*
X349219Y90781D01*
X347365Y95865D02*
X349219Y97719D01*
X347365Y139635D02*
X349219Y137781D01*
X347365Y142865D02*
X349219Y144719D01*
X347365Y147135D02*
X349219Y145281D01*
X347365Y150365D02*
X349219Y152219D01*
X349365Y264135D02*
X351219Y262281D01*
X349365Y267365D02*
X351219Y269219D01*
X353045Y392156D02*
X351631Y390741D01*
X353045Y395691D02*
X351631Y397105D01*
X356581Y392156D02*
X357995Y390741D01*
X356581Y395691D02*
X357995Y397105D01*
X356635Y351635D02*
X354781Y349781D01*
X356635Y354865D02*
X354781Y356719D01*
X358250Y360250D02*
Y364750D01*
X357750Y365250*
X359865Y351635D02*
X361719Y349781D01*
X359865Y354865D02*
X361719Y356719D01*
X375635Y358635D02*
X373781Y356781D01*
X375635Y361865D02*
X373781Y363719D01*
X378865Y358635D02*
X380719Y356781D01*
X378865Y361865D02*
X380719Y363719D01*
X389750Y91750D02*
X404500D01*
X406500Y89750*
X411250*
X389750Y144750D02*
X409250D01*
X411250Y142750*
X441320Y83820D02*
X439906Y82406D01*
X441320Y88680D02*
X439906Y90094D01*
X441320Y137320D02*
X439906Y135906D01*
X441320Y142180D02*
X439906Y143594D01*
X446180Y83820D02*
X447594Y82406D01*
X446180Y88680D02*
X447594Y90094D01*
X446180Y137320D02*
X447594Y135906D01*
X446180Y142180D02*
X447594Y143594D01*
X461320Y83820D02*
X459906Y82406D01*
X461320Y88680D02*
X459906Y90094D01*
X461320Y137320D02*
X459906Y135906D01*
X461320Y142180D02*
X459906Y143594D01*
X466180Y83820D02*
X467594Y82406D01*
X466180Y88680D02*
X467594Y90094D01*
X466180Y137320D02*
X467594Y135906D01*
X466180Y142180D02*
X467594Y143594D01*
D02*
D14*
X101750Y232750D03*
Y271500D03*
Y309000D03*
X110250Y319000D03*
X116500Y229000D03*
X117750Y204000D03*
Y244000D03*
X119000Y271500D03*
X120250Y232750D03*
Y309000D03*
X122750Y122750D03*
Y194250D03*
Y212750D03*
X125750Y149750D03*
Y292750D03*
X130250Y340250D03*
Y365250D03*
X132750Y129750D03*
Y256500D03*
X133750Y297250D03*
X134000Y279000D03*
X136500Y239000D03*
X137750Y360250D03*
X153250Y245250D03*
X153750Y345250D03*
Y365250D03*
X154000Y212750D03*
X156500Y252750D03*
X157750Y126500D03*
Y292750D03*
X160250Y280750D03*
X162750Y139750D03*
X163250Y185250D03*
Y208750D03*
X167750Y99750D03*
X171500Y157750D03*
X181500Y251500D03*
Y290250D03*
X184250Y238750D03*
X186250Y275250D03*
X188250Y241250D03*
X189000Y221500D03*
X191500Y55250D03*
Y112250D03*
Y263250D03*
Y303250D03*
X192750Y217250D03*
X198250Y255750D03*
X200250Y275250D03*
X201250Y246250D03*
Y297250D03*
X203250Y159750D03*
X205250Y224750D03*
X205750Y185250D03*
X215250Y309000D03*
Y340250D03*
X219000Y313573D03*
Y345250D03*
X235250Y301500D03*
Y306500D03*
X240250Y179750D03*
Y270250D03*
X245250Y169750D03*
Y265250D03*
Y290250D03*
X252750Y325250D03*
X260250Y140250D03*
Y231500D03*
X265250Y129750D03*
Y217250D03*
X274000Y149750D03*
Y212750D03*
Y224750D03*
X275250Y42250D03*
X276500Y301500D03*
Y306500D03*
X280250Y90250D03*
X282250Y270250D03*
Y314000D03*
X289250Y265250D03*
Y314000D03*
X326250Y312250D03*
X339000Y259000D03*
X346750Y301500D03*
Y365250D03*
X357750D03*
X370250Y306500D03*
Y365250D03*
D02*
D15*
X34250Y130750D02*
X54750D01*
X60250Y125250*
Y59352*
X65250Y54352*
X93250*
X34250Y150750D02*
X69750D01*
X75250Y145250*
Y95352*
X80250Y90352*
X93250*
X34250Y170750D02*
X82750D01*
X93250Y160250*
Y124352*
X38250Y222250D02*
X58250D01*
X38250Y232250D02*
X58250D01*
X38250Y261000D02*
X58250D01*
X38250Y271000D02*
X58250D01*
X38250Y298500D02*
X58250D01*
X38250Y308500D02*
X58250D01*
Y222250D02*
X72750D01*
X77750Y217250*
X94750*
X58250Y232250D02*
X72750D01*
X77750Y227250*
X94750*
X58250Y261000D02*
X76500D01*
X81500Y256000*
X94750*
X58250Y271000D02*
X79000D01*
X84000Y266000*
X94750*
X58250Y298500D02*
X76500D01*
X81500Y293500*
X94750*
X58250Y308500D02*
X80250D01*
X85250Y303500*
X94750*
X93250Y42148D02*
X110148D01*
X110250Y42250*
X93250Y78148D02*
X110148D01*
X110250Y78250*
X93250Y112148D02*
X110148D01*
X110250Y112250*
X94750Y227250D02*
Y237250D01*
Y266000D02*
Y276000D01*
Y303500D02*
Y313500D01*
X101750Y217250D02*
X106750D01*
X107750Y216250*
X110750*
X101750Y227250D02*
X110250D01*
X101750Y237250D02*
Y232750D01*
Y256000D02*
X105500D01*
X106500Y255000*
X110750*
X101750Y266000D02*
X103750D01*
X107750Y262000*
X110750*
X101750Y276000D02*
Y271500D01*
Y293500D02*
X109750D01*
X110750Y292500*
X101750Y303500D02*
X110738D01*
X101750Y313500D02*
Y309000D01*
X110250Y227250D02*
Y223750D01*
X110750Y223250*
X110250Y227250D02*
Y230750D01*
X110750Y231250*
X110738Y303500D02*
X110750D01*
Y307500*
Y216250D02*
X113177D01*
X121500Y224573*
X125750*
X110750Y216250D02*
Y208750D01*
X111000Y208500*
X110750Y270000D02*
Y262000D01*
Y299500D02*
Y303488D01*
X110738Y303500*
X111000Y248500D02*
Y254750D01*
X110750Y255000*
X111000Y286000D02*
Y292250D01*
X110750Y292500*
X114250Y184750D02*
X162750D01*
X163250Y185250*
X114250Y194250D02*
X122750D01*
X116500Y229000D02*
X120809D01*
X121500Y229691*
X125750*
X119000Y271500D02*
X121500Y269000D01*
Y268441*
X125750*
X120250Y309000D02*
X122191D01*
X122750Y308441*
X125750*
X122750Y122750D02*
X192250D01*
X205250Y109750*
X214750*
X125750Y149750D02*
X214750D01*
X125750Y216896D02*
Y214500D01*
X124000Y212750*
X122750*
X125750Y227132D02*
X119132D01*
X115250Y223250*
X110750*
X125750Y255646D02*
X131896D01*
X132750Y256500*
X125750Y263323D02*
X120823D01*
X115250Y257750*
Y256000*
X114000Y254750*
X111000*
X110750Y255000*
X125750Y265882D02*
X119132D01*
X115250Y262000*
X110750*
X125750Y292750D02*
X129250D01*
X133750Y297250*
X125750Y295646D02*
Y292750D01*
Y303323D02*
X118323D01*
X116500Y301500*
Y295000*
X114000Y292500*
X110750*
X125750Y305882D02*
X118118D01*
X116500Y307500*
X110750*
X130250Y365250D02*
Y394234D01*
X130439Y394423*
X130250Y365250D02*
Y360250D01*
X132750Y129750D02*
X214750D01*
X140250Y78250D02*
X156750D01*
X140250Y112250D02*
X156750D01*
X148388Y219455D02*
X152545D01*
X163250Y208750*
X148388Y222014D02*
X152986D01*
X157750Y217250*
X168250*
X148388Y224573D02*
X168073D01*
X168250Y224750*
X148388Y227132D02*
X152632D01*
X157750Y232250*
X168250*
X148388Y258205D02*
X151045D01*
X156500Y252750*
X148388Y260764D02*
X151986D01*
X156500Y256250*
X168750*
X148388Y263323D02*
X168677D01*
X168750Y263250*
X148388Y265882D02*
X152132D01*
X156500Y270250*
X169250*
X148388Y298205D02*
X152295D01*
X157750Y292750*
X148388Y300764D02*
X152736D01*
X157750Y295750*
X169250*
X148388Y303323D02*
X169177D01*
X169250Y303250*
X148388Y305882D02*
X152882D01*
X157750Y310750*
X169250*
X153250Y245250D02*
X177750D01*
X184250Y238750*
X153750Y365250D02*
Y360250D01*
X154061Y394423D02*
Y365561D01*
X153750Y365250*
X156500Y252750D02*
X160250D01*
X166250Y246750*
X182750*
X188250Y241250*
X156750Y42250D02*
X275250D01*
X156750D02*
X140250D01*
X156750Y78250D02*
X172250D01*
X176500Y74000*
Y52750*
X180250Y49000*
X282750*
X285250Y51500*
Y97250*
X287750Y99750*
X294750*
X156750Y112250D02*
X191500D01*
X157750Y126500D02*
X198500D01*
X205250Y119750*
X214750*
X162750Y139750D02*
X214750D01*
X163250Y185250D02*
X205750D01*
X175250Y217250D02*
X184750D01*
X189000Y221500*
X175250Y224750D02*
X175947D01*
X176500Y225303*
X204697*
X205250Y224750*
X175250Y232250D02*
X195250D01*
X175750Y256250D02*
Y253500D01*
X177750Y251500*
X181500*
X175750Y263250D02*
X191500D01*
X176250Y270250D02*
X195250D01*
X176250Y295750D02*
Y295500D01*
X181500Y290250*
X176250Y303250D02*
X191500D01*
X176250Y310750D02*
X193500D01*
X195250Y309000*
Y270250*
X186250Y275250D02*
X165750D01*
X160250Y280750*
X188250Y159750D02*
X203250D01*
X188250Y166750D02*
X179750D01*
X178750Y167750*
X191500Y55250D02*
X279000D01*
X280250Y56500*
Y90250*
X192750Y217250D02*
X265250D01*
X195250Y232250D02*
X259500D01*
X260250Y231500*
X195250Y270250D02*
Y232250D01*
X198250Y255750D02*
X220250D01*
X201250Y246250D02*
X220250D01*
X201250Y297250D02*
X214750D01*
X220250Y291750*
Y284750*
X205250Y224750D02*
X274000D01*
X214750Y169750D02*
X245250D01*
X214750Y179750D02*
X240250D01*
X215250Y340250D02*
X130250D01*
X219000Y345250D02*
X153750D01*
X220250Y275250D02*
X200250D01*
X229250Y318750D02*
X236382D01*
X239000Y316132*
X245250*
X240250Y270250D02*
X282250D01*
X245250Y265250D02*
X289250D01*
X245250Y305896D02*
X239646D01*
X235250Y301500*
X245250Y308455D02*
X237205D01*
X235250Y306500*
X245250Y311014D02*
X222264D01*
X220250Y309000*
X215250*
X245250Y313573D02*
X219000D01*
X260250Y140250D02*
X260750Y139750D01*
X294750*
X260250Y231500D02*
X266500D01*
X278250Y243250*
X296250*
X298250Y241250*
Y231750*
X265250Y129750D02*
X294750D01*
X265250Y217250D02*
X284750D01*
X288250Y220750*
Y231750*
X267297Y316132D02*
X273118D01*
X279000Y310250*
X285500*
X289250Y314000*
X267297Y318691D02*
X282191D01*
X282250Y318750*
X274000Y149750D02*
X294750D01*
X276500Y301500D02*
X346750D01*
X276500Y306500D02*
X370250D01*
X282250Y314000D02*
Y318750D01*
X289250Y314000D02*
Y318750D01*
X303750*
X307250Y322250*
X314250*
X294750Y179750D02*
X327000D01*
X334000Y172750*
Y142750*
X341500Y135250*
X351500*
X352750Y136500*
Y141250*
X308250Y231750D02*
Y219750D01*
X301250Y212750*
X274000*
X326250Y312250D02*
Y322250D01*
X346750Y365250D02*
Y393734D01*
X346939Y393923*
X346750Y365250D02*
Y360250D01*
X347750Y272750D02*
X339750D01*
X338750Y273750*
X352750Y87250D02*
X352250D01*
X346500Y81500*
X329000*
X326500Y84000*
Y113500*
X320250Y119750*
X294750*
X352750Y87250D02*
X363250D01*
X364250Y86250*
X352750Y148750D02*
X363250D01*
X364250Y149750*
Y95250D02*
X353750D01*
X352750Y94250*
X364250Y140750D02*
X353250D01*
X352750Y141250*
X370250Y365250D02*
Y393612D01*
X370561Y393923*
X370250Y365250D02*
Y360250D01*
X384750Y86750D02*
X364750D01*
X364250Y86250*
X384750Y139750D02*
X371250D01*
X370250Y140750*
X364250*
X384750Y149750D02*
X411250D01*
Y96750D02*
X418250Y89750D01*
X411250Y96750D02*
X384750D01*
X411250Y149750D02*
X418250Y142750D01*
X443750Y96250D02*
X418750D01*
X418250Y96750*
X443750Y149750D02*
X418250D01*
X463750Y96250D02*
X443750D01*
X463750Y149750D02*
X443750D01*
D02*
D16*
X22750Y22750D03*
Y425250D03*
X477750Y22750D03*
Y425250D03*
D02*
D17*
X130439Y394423D03*
X138313D03*
X146187D03*
X154061D03*
X186738Y417061D03*
X214750Y69750D03*
Y79750D03*
Y89750D03*
Y99750D03*
Y109750D03*
Y119750D03*
Y129750D03*
Y139750D03*
Y149750D03*
Y159750D03*
Y169750D03*
X294750Y29750D03*
Y39750D03*
Y49750D03*
Y59750D03*
Y69750D03*
Y79750D03*
Y89750D03*
Y99750D03*
Y109750D03*
Y119750D03*
Y129750D03*
Y139750D03*
Y149750D03*
Y159750D03*
Y169750D03*
Y179750D03*
X346939Y393923D03*
X354813D03*
X362687D03*
X370561D03*
X384750Y86750D03*
Y96750D03*
Y139750D03*
Y149750D03*
X389750Y91750D03*
Y144750D03*
X403238Y416561D03*
D02*
D18*
X95006Y405250D03*
X98549Y381825D03*
Y422967D03*
X185951Y381825D03*
Y428675D03*
X189494Y405250D03*
X311506Y404750D03*
X315049Y381325D03*
Y422467D03*
X402451Y381325D03*
Y428175D03*
X405994Y404750D03*
D02*
D19*
X125750Y216896D03*
Y219455D03*
Y222014D03*
Y224573D03*
Y227132D03*
Y229691D03*
Y232250D03*
Y255646D03*
Y258205D03*
Y260764D03*
Y263323D03*
Y265882D03*
Y268441D03*
Y271000D03*
Y295646D03*
Y298205D03*
Y300764D03*
Y303323D03*
Y305882D03*
Y308441D03*
Y311000D03*
X148388Y216896D03*
Y219455D03*
Y222014D03*
Y224573D03*
Y227132D03*
Y229691D03*
Y232250D03*
Y255646D03*
Y258205D03*
Y260764D03*
Y263323D03*
Y265882D03*
Y268441D03*
Y271000D03*
Y295646D03*
Y298205D03*
Y300764D03*
Y303323D03*
Y305882D03*
Y308441D03*
Y311000D03*
D02*
D70*
X94750Y217250D03*
Y227250D03*
Y237250D03*
Y256000D03*
Y266000D03*
Y276000D03*
Y293500D03*
Y303500D03*
Y313500D03*
X101750Y217250D03*
Y227250D03*
Y237250D03*
Y256000D03*
Y266000D03*
Y276000D03*
Y293500D03*
Y303500D03*
Y313500D03*
X111000Y208500D03*
Y248500D03*
Y286000D03*
X118000Y208500D03*
Y248500D03*
Y286000D03*
X123250Y360250D03*
X130250D03*
X133750Y205000D03*
Y211000D03*
Y244000D03*
Y250000D03*
Y283500D03*
X134000Y289750D03*
X140750Y205000D03*
Y211000D03*
Y244000D03*
Y250000D03*
Y283500D03*
X141000Y289750D03*
X153750Y360250D03*
X160750D03*
X168250Y217250D03*
Y224750D03*
Y232250D03*
X168750Y256250D03*
Y263250D03*
X169250Y270250D03*
Y295750D03*
Y303250D03*
Y310750D03*
X175250Y217250D03*
Y224750D03*
Y232250D03*
X175750Y256250D03*
Y263250D03*
X176250Y270250D03*
Y295750D03*
Y303250D03*
Y310750D03*
X252750Y329250D03*
X259750D03*
X339750Y360250D03*
X345750Y87250D03*
Y94250D03*
Y141250D03*
Y148750D03*
X346750Y360250D03*
X352750Y87250D03*
Y94250D03*
Y141250D03*
Y148750D03*
X370250Y360250D03*
X377250D03*
X411250Y89750D03*
Y96750D03*
Y142750D03*
Y149750D03*
X418250Y89750D03*
Y96750D03*
Y142750D03*
Y149750D03*
D02*
D71*
X245250Y293100D03*
Y295659D03*
Y298219D03*
Y300778D03*
Y303337D03*
Y305896D03*
Y308455D03*
Y311014D03*
Y313573D03*
Y316132D03*
Y318691D03*
Y321250D03*
X267297Y293100D03*
Y295659D03*
Y298219D03*
Y300778D03*
Y303337D03*
Y305896D03*
Y308455D03*
Y311014D03*
Y313573D03*
Y316132D03*
Y318691D03*
Y321250D03*
D02*
D20*
X110750Y216250D03*
Y223250D03*
Y231250D03*
Y238250D03*
Y255000D03*
Y262000D03*
Y270000D03*
Y277000D03*
Y292500D03*
Y299500D03*
Y307500D03*
Y314500D03*
X142250Y353250D03*
Y360250D03*
X156750Y35250D03*
Y42250D03*
Y71250D03*
Y78250D03*
Y105250D03*
Y112250D03*
X188250Y159750D03*
Y166750D03*
X229250Y318750D03*
Y325750D03*
X282250Y318750D03*
Y325750D03*
X289250Y318750D03*
Y325750D03*
X347750Y265750D03*
Y272750D03*
X358250Y353250D03*
Y360250D03*
D02*
D21*
X38250Y222250D03*
Y232250D03*
Y261000D03*
Y271000D03*
Y298500D03*
Y308500D03*
X58250Y222250D03*
Y232250D03*
Y261000D03*
Y271000D03*
Y298500D03*
Y308500D03*
X443750Y86250D03*
Y96250D03*
Y139750D03*
Y149750D03*
X463750Y86250D03*
Y96250D03*
Y139750D03*
Y149750D03*
D02*
D22*
X178750Y158750D03*
Y167750D03*
X338750Y264750D03*
Y273750D03*
X364250Y86250D03*
Y95250D03*
Y140750D03*
Y149750D03*
D02*
D23*
X110250Y32250D03*
Y42250D03*
Y68250D03*
Y78250D03*
Y102250D03*
Y112250D03*
X140250Y32250D03*
Y42250D03*
Y68250D03*
Y78250D03*
Y102250D03*
Y112250D03*
D02*
D24*
X34250Y170750D03*
D02*
D25*
Y110750D03*
Y130750D03*
Y150750D03*
D02*
D26*
X214750Y179750D03*
D02*
D27*
X217250Y194750D03*
X219750Y14750D03*
X289750D03*
X292500Y194750D03*
D02*
D28*
X93250Y42148D03*
Y54352D03*
Y78148D03*
Y90352D03*
Y112148D03*
Y124352D03*
D02*
D88*
X288250Y231750D03*
X298250D03*
X308250D03*
X314250Y322250D03*
X326250D03*
D02*
D89*
X114250Y184750D03*
Y194250D03*
X220250Y246250D03*
Y255750D03*
Y275250D03*
Y284750D03*
X0Y0D02*
M02*
